<?xml version="1.0" encoding="utf-8"?>
<!-- Generator: Adobe Illustrator 23.0.1, SVG Export Plug-In . SVG Version: 6.00 Build 0)  -->
<svg version="1.1" id="Calque_1" xmlns="http://www.w3.org/2000/svg" xmlns:xlink="http://www.w3.org/1999/xlink" x="0px" y="0px"
	 viewBox="0 0 200 36" style="enable-background:new 0 0 200 36;" xml:space="preserve">
<style type="text/css">
	.st0{opacity:0.87;fill:#EF67A5;}
</style>
<g>
	<path d="M30.5,28.4H27l7-20.9h3.5l6.6,20.9h-3.2L39,22.9l-0.9-3.5l-0.2-0.5v-0.2l-1.6-4.8c-0.1-0.5-0.2-0.9-0.3-1.3
		c-0.1-0.4-0.2-0.8-0.3-1.3c-0.1,0.5-0.3,0.9-0.4,1.4c-0.1,0.4-0.2,0.8-0.3,1.2l-1.6,5.5h3.9l0.7,2.5h-5.5L30.5,28.4z"/>
	<path d="M49.6,7.5l12.2,21h-3.7l-2.5-4.6c-0.5-0.7-0.9-1.3-1.2-1.9s-0.6-1.1-0.9-1.5c-0.2,0.5-0.5,1-0.8,1.5s-0.6,1.2-1.1,2
		l-2.3,4.6h-3.7l6-10.6L45.9,7.5H49.6z M54.4,13.9c0.1-0.3,0.2-0.6,0.3-0.8s0.2-0.5,0.4-0.8l2.8-4.8h3.7L56,16.9L54.4,13.9z"/>
	<path d="M67.5,7.5l12.2,21H76l-2.5-4.6c-0.5-0.7-0.9-1.3-1.2-1.9c-0.3-0.6-0.6-1.1-0.8-1.6c-0.2,0.5-0.5,1-0.8,1.5s-0.6,1.2-1.1,2
		l-2.3,4.6h-3.7l6-10.6L63.9,7.5H67.5z M72.4,13.9c0.1-0.3,0.2-0.6,0.3-0.8c0.1-0.2,0.2-0.5,0.4-0.8l2.8-4.8h3.7L74,16.9L72.4,13.9z
		"/>
	<path d="M92.9,7.5H96v12c0,1.4-0.2,2.6-0.5,3.7s-0.8,2-1.4,2.8s-1.4,1.3-2.3,1.8c-0.9,0.4-2,0.6-3.1,0.6c-1.6,0-2.8-0.3-3.8-0.9
		c-0.9-0.6-1.7-1.4-2.1-2.3c-0.5-0.9-0.8-1.9-1-2.9s-0.2-2-0.2-2.8v-12h3.1v12c0,2,0.4,3.5,1.1,4.5s1.7,1.5,2.9,1.5
		c0.9,0,1.6-0.2,2.2-0.5c0.5-0.4,1-0.8,1.3-1.4s0.5-1.2,0.6-1.9c0.1-0.7,0.2-1.4,0.2-2.2L92.9,7.5L92.9,7.5z"/>
	<path d="M117.8,18c-0.6-1-1.1-2-1.6-2.9s-1-1.7-1.3-2.6c0.1,1,0.2,2.1,0.2,3.2s0,2.3,0,3.6v9.1h-3V7.5h3.2l6.1,10.5
		c0.6,0.8,1.1,1.7,1.5,2.5c0.4,0.9,0.8,1.7,1.3,2.5l2.8,5.4h-3L117.8,18z M124,20.7v-4.3V7.5h3v19.1L124,20.7z"/>
	<path d="M136.9,26.6c-1,1.2-2.6,1.8-4.6,1.8c-0.4,0-0.9-0.1-1.4-0.2s-0.9-0.2-1.3-0.3l-0.2-0.3l0.4-2.7l0.5,0.3
		c0.2,0.1,0.5,0.2,0.8,0.2s0.6,0,1,0s0.8,0,1.2-0.1s0.7-0.2,1-0.5s0.5-0.7,0.7-1.4c0.2-0.6,0.3-1.4,0.3-2.5V7.5h3.2v13.7
		C138.4,23.6,137.9,25.4,136.9,26.6z"/>
	<path d="M151.5,7.5h3.1v12c0,1.4-0.2,2.6-0.5,3.7s-0.8,2-1.4,2.8c-0.6,0.8-1.4,1.3-2.3,1.8c-0.9,0.4-2,0.6-3.1,0.6
		c-1.6,0-2.8-0.3-3.8-0.9c-0.9-0.6-1.7-1.4-2.1-2.3c-0.5-0.9-0.8-1.9-1-2.9s-0.2-2-0.2-2.8v-12h3.1v12c0,2,0.4,3.5,1.1,4.5
		c0.7,1,1.7,1.5,2.9,1.5c0.9,0,1.6-0.2,2.2-0.5c0.5-0.4,1-0.8,1.3-1.4s0.5-1.2,0.6-1.9c0.1-0.7,0.2-1.4,0.2-2.2v-12H151.5z"/>
	<path d="M164.9,16.2c0.7-0.6,1-1.5,1-2.5c0-0.7-0.1-1.3-0.3-1.8c-0.2-0.4-0.5-0.8-0.9-1s-0.8-0.4-1.2-0.5c-0.5-0.1-0.9-0.1-1.4-0.1
		h-2v18.1h-3.2V8h0.2c0.6-0.1,1.3-0.2,2.1-0.3c0.8-0.1,1.7-0.1,2.6-0.1c1.4,0,2.5,0.1,3.4,0.4c0.9,0.2,1.7,0.7,2.2,1.2
		c0.6,0.6,1,1.2,1.2,1.9c0.3,0.7,0.4,1.4,0.4,2.2c0,1.2-0.3,2.3-0.8,3.2c-0.5,0.9-1.3,1.6-2.4,2c0.6,0.3,1.1,0.8,1.5,1.5
		s0.8,1.5,1,2.5c0.2,1.4,0.5,2.5,0.7,3.5s0.5,1.6,0.7,1.9l0.3,0.5h-3.2l-0.2-0.2c-0.1-0.2-0.3-0.7-0.5-1.4s-0.4-1.8-0.6-3.3
		c-0.2-0.7-0.4-1.2-0.6-1.7c-0.2-0.5-0.5-0.8-0.7-1.1c-0.3-0.3-0.6-0.5-1-0.6s-0.8-0.2-1.3-0.2h-1.1v-2.7h1.4
		C163.3,17.1,164.3,16.8,164.9,16.2z"/>
	<path d="M174.9,19v5.7h-3.2V7.5h11v2.8h-7.8V16h7.4v3C182.3,19,174.9,19,174.9,19z M183.2,25.7v2.7h-11.5v-2.8h3.2L183.2,25.7
		L183.2,25.7z"/>
	<path d="M196.4,28.4h-11.3v-21h3.2v18h8.1V28.4z"/>
</g>
<g>
	<g>
		<path d="M193.6,8.5c-2.1,0-3.7-1.7-3.7-3.7s1.7-3.7,3.7-3.7s3.7,1.7,3.7,3.7S195.7,8.5,193.6,8.5z M193.6,1.2
			c-1.9,0-3.5,1.6-3.5,3.5s1.6,3.5,3.5,3.5s3.5-1.6,3.5-3.5S195.6,1.2,193.6,1.2z"/>
	</g>
	<g>
		<path d="M192.3,4.6c0.3,0.1,0.5,0.3,0.6,0.4s0.2,0.4,0.2,0.6c0,0.1,0,0.2-0.1,0.4c0,0.1-0.1,0.2-0.2,0.3c-0.1,0.1-0.2,0.2-0.4,0.2
			c-0.1,0.1-0.3,0.1-0.5,0.1c-0.1,0-0.3,0-0.4-0.1c-0.2,0-0.3-0.1-0.4-0.1l0,0l0.1-0.5l0,0c0.1,0.1,0.2,0.1,0.4,0.2s0.2,0.1,0.4,0.1
			s0.3,0,0.4-0.1c0.1-0.1,0.2-0.2,0.2-0.4c0-0.1,0-0.2-0.1-0.3c-0.1-0.1-0.2-0.2-0.4-0.3c-0.3-0.1-0.5-0.2-0.7-0.4
			c-0.1-0.2-0.2-0.3-0.2-0.6c0-0.1,0-0.3,0.1-0.4s0.1-0.2,0.2-0.3c0.1-0.1,0.2-0.2,0.3-0.2s0.3-0.1,0.4-0.1c0.2,0,0.3,0,0.4,0.1
			s0.2,0.1,0.3,0.1l0,0l-0.2,0.4h-0.1c-0.1,0-0.1-0.1-0.2-0.1c-0.1,0-0.2,0-0.3,0s-0.1,0-0.2,0c-0.1,0-0.1,0-0.2,0.1l-0.1,0.1
			c0,0.1,0,0.1,0,0.2s0,0.1,0,0.2s0.1,0.1,0.1,0.1s0.1,0.1,0.2,0.1C192,4.5,192.1,4.5,192.3,4.6z"/>
		<path d="M194.3,4.8c-0.1-0.2-0.2-0.3-0.3-0.5c-0.1-0.1-0.2-0.3-0.2-0.4c0,0.2,0,0.3,0,0.5s0,0.4,0,0.6v1.5h-0.5V3.1h0.5l1,1.7
			c0.1,0.1,0.2,0.3,0.2,0.4c0.1,0.1,0.1,0.3,0.2,0.4l0.5,0.9h-0.5L194.3,4.8z M195.3,5.3V4.6V3.1h0.5v3.2L195.3,5.3z"/>
	</g>
</g>
<g>
	<g>
		<path d="M20.9,28.2c-0.2,0.2-0.4,0.3-0.7,0.5c-0.5,0.4-1.1,0.7-1.7,0.9c0,0-0.1,0.1-0.1,0c0-0.1,0-0.1,0.1-0.1
			c0.7-0.4,1.3-1,1.8-1.6c0.8-1.1,1.3-2.3,1.2-3.7c-0.2-1.7-1-2.9-2.5-3.7c-0.2-0.1-0.2-0.1-0.3,0.1c-0.7,1.1-1.5,2-2.6,2.7
			c-0.9,0.6-1.9,1-3.1,1c-0.3,0-0.6-0.2-0.9-0.3c-0.8-0.4-1.5-1.1-2-1.8c-0.2-0.3-0.4-0.6-0.6-1c0,0,0,0,0,0
			c-0.1-0.3-0.3-0.6-0.4-0.9C9,20,8.9,19.8,8.8,19.7c0,0,0-0.1,0-0.1c0-0.1-0.1-0.1-0.1-0.1c-0.6,0-1.2-0.2-1.7-0.5
			c-0.1-0.1-0.2-0.2-0.4-0.2l0,0l0,0c0-0.1-0.1-0.1-0.1-0.1C6.2,18.5,6,18.3,5.9,18c-0.3-0.5-0.5-1.2-0.6-1.8
			c-0.1-1,0.2-1.9,0.7-2.8c0.3-0.5,0.7-0.9,1.1-1.4c0.5-0.5,1-0.8,1.5-1.1c0.4-0.2,0.7-0.4,1.2-0.6c0.3-0.1,0.5-0.2,0.8-0.3
			c1.2-0.4,2.3-0.8,3.5-1.3c0.8-0.4,1.6-0.8,2.2-1.4c0.5-0.5,0.9-1.2,1.1-1.9c0.1-0.5,0-0.9-0.3-1.3c-0.2-0.3-0.5-0.5-0.9-0.6
			c-0.5-0.2-1.1-0.3-1.6-0.4c-0.6,0-1.1,0.1-1.6,0.2C11.8,3.6,10.7,4,9.7,4.6c-0.9,0.6-1.7,1.2-2.4,2C6.8,7.3,6.3,8,5.9,8.7
			C5.4,9.6,5,10.6,4.7,11.5c-0.2,0.8-0.4,1.7-0.4,2.6c0,0.7,0,1.4,0.1,2.1c0.1,0.9,0.5,1.8,1,2.5C5.6,19,5.8,19.2,6,19.4
			c0.2,0.2,0.4,0.4,0.6,0.6c0.4,0.4,0.8,0.7,1.1,1.2c0.5,0.7,0.4,1.8-0.3,2.3c-0.5,0.4-1.1,0.5-1.7,0.2c-0.3-0.2-0.5-0.5-0.5-0.8
			c0.2,0.5,0.6,0.5,1,0.6c0.2,0,0.3,0,0.5,0c0.4-0.1,0.6-0.4,0.7-0.8c0.1-0.5-0.1-1-0.4-1.4c-0.4-0.4-0.8-0.7-1.2-1
			c-0.7-0.6-1.2-1.2-1.7-1.9c-0.3-0.4-0.5-0.9-0.6-1.4C3,15.6,2.9,14.3,3,13c0.1-0.8,0.3-1.7,0.5-2.5c0.4-1.3,1-2.6,1.8-3.8
			c0.5-0.8,1.2-1.6,1.9-2.3c0.7-0.7,1.4-1.3,2.3-1.8c1-0.6,2-1,3.2-1.1c0.7-0.1,1.4,0,2.1,0.1c0.8,0.2,1.4,0.6,2,1.2
			c0.3,0.3,0.5,0.5,0.7,0.8c0.4,0.6,0.5,1.3,0.4,2c0,0.3-0.1,0.6-0.2,1c0,0,0,0.1,0,0.1c0,0.8-0.2,1.5-0.5,2.2
			c-0.3,0.8-0.8,1.5-1.5,2.1c-0.4,0.3-0.8,0.5-1.2,0.6c-0.7,0.1-1.3-0.2-1.8-0.7c-0.1-0.1-0.1-0.1-0.2,0c0,0,0,0,0,0.1
			c-0.1,0.5,0,0.9,0.3,1.3c0.3,0.5,0.7,0.9,1.1,1.2c0.5,0.4,1,0.8,1.4,1.2c0.2,0.2,0.4,0.4,0.5,0.5c0.3,0.4,0.6,0.8,0.7,1.3
			c0.1,0.4,0,0.8-0.2,1.2c-0.1,0.1-0.2,0.3-0.3,0.4c0,0-0.1,0.1-0.1,0.1c-0.2,0.2-0.3,0.4-0.5,0.5c0,0,0,0,0,0c0,0,0-0.1,0-0.1
			c0.3-0.6,0.3-1.2,0.1-1.8c-0.2-0.6-0.6-1.1-0.9-1.6c-0.3-0.4-0.7-0.8-1-1.3c-0.3-0.4-0.6-0.8-0.9-1.3c-0.3-0.6-0.4-1.1-0.2-1.8
			c-0.3,0.1-0.5,0.2-0.7,0.3c-0.7,0.3-1.4,0.5-2,0.9c-0.1,0.1-0.2,0.1-0.3,0.3c-0.2,0.4-0.5,0.9-0.6,1.4c-0.2,0.7-0.3,1.4-0.1,2.1
			c0,0.2,0.1,0.4,0.1,0.6c0,0,0,0.1,0,0c0,0.1,0,0.1,0,0.2c0.1,0.5,0.3,1,0.5,1.6c0.1,0.3,0.1,0.3,0.4,0.2c0.9-0.2,1.4-1.2,1.3-1.8
			c-0.1-0.6-0.5-1-1.1-1c-0.4,0-0.6,0.2-0.9,0.5c-0.1,0.1-0.2,0.2-0.3,0.3c0-0.4,0.3-0.7,0.6-0.9c0.6-0.4,1.3-0.4,1.8,0
			c0.5,0.4,0.7,1,0.7,1.6c-0.1,0.7-0.4,1.3-0.9,1.7c-0.3,0.3-0.7,0.4-1.1,0.5c-0.1,0-0.1,0.1-0.1,0.2c0.4,1,0.9,2,1.6,2.8
			c0.5,0.5,1,1,1.7,1.2c0.6,0.1,1.1,0.1,1.6-0.1c0.6-0.2,1-0.5,1.5-0.8c1.3-1,2.2-2.2,3-3.6c0.4-0.7,0.8-1.5,1.1-2.3
			c0.2-0.6,0.4-1.2,0.3-1.9c0-0.1,0-0.2,0-0.3c0.1,0.2,0.2,0.4,0.2,0.7c0.1,0.8-0.1,1.6-0.4,2.4c-0.2,0.7-0.5,1.4-0.9,2.1
			c0.2,0.1,0.4,0.1,0.6,0.2c0.7,0.3,1.4,0.7,1.9,1.3c0.9,1.1,1.3,2.3,1.2,3.7c-0.1,0.9-0.5,1.7-1,2.5C21.5,27.6,21.2,27.9,20.9,28.2
			z M8.2,12.9C8,13,7.9,13.2,7.7,13.3c-0.6,0.6-1.2,1.3-1.3,2.2c-0.2,1.1,0.3,2.2,1.4,2.7c0.2,0.1,0.4,0.1,0.6,0.2
			C8.2,17.7,8,17,7.8,16.3c-0.2-1-0.2-2,0.2-2.9C8.1,13.2,8.1,13.1,8.2,12.9z M16.6,8.2c-1.1,1.2-2.6,1.9-4.2,2.5
			c0.1,0.1,0.2,0.2,0.3,0.2c0.4,0.2,0.8,0.3,1.3,0.2c0.4-0.1,0.7-0.3,1-0.6c0.6-0.6,1.1-1.3,1.4-2.1C16.6,8.5,16.6,8.4,16.6,8.2z"/>
		<path d="M15.1,14.2c0.6-0.8,1.9-0.6,2.3,0.5c0.1-0.3,0.1-0.5,0.2-0.7c0.3-0.5,0.8-0.8,1.4-0.7c0.7,0.1,1.2,0.6,1.2,1.3
			c0,0.5-0.1,0.9-0.3,1.4c-0.2,0.6-0.7,1-1.1,1.4c-0.8,0.7-1.6,1.3-2.4,1.9c-0.7,0.5-1.5,1.1-2.1,1.7c-0.2,0.3-0.5,0.6-0.6,0.9
			c-0.1,0.2-0.1,0.3-0.1,0.5c-0.1-0.2-0.2-0.3-0.3-0.5c-0.5-1.1-0.8-2.3-1-3.5c-0.1-0.8-0.2-1.7-0.3-2.5c-0.1-0.5-0.2-1-0.4-1.5
			c-0.4-0.6-0.9-0.9-1.5-1.2c0,0-0.1,0-0.1-0.1c0,0-0.1,0-0.1-0.1c0.6,0,1.1,0.2,1.5,0.5c0.5,0.4,0.8,0.9,1,1.4
			c0.2,0.4,0.3,0.9,0.4,1.3c0.1,0.6,0.2,1.2,0.3,1.8c0,0.4,0.1,0.9,0.2,1.3c0.1,0.5,0.1,1,0.3,1.5c0,0,0-0.1,0-0.1
			c0.1-0.6,0.5-1,0.9-1.4c0.3-0.2,0.6-0.4,1-0.6c0.2-0.1,0.4-0.1,0.5-0.2c0.8-0.3,1.5-0.6,2.3-1c0.7-0.4,1.2-0.9,1.5-1.7
			c0-0.1,0.1-0.2,0.1-0.3c0.1-0.5,0-0.9-0.3-1.3c-0.4-0.4-0.9-0.3-1.2,0c0,0.1-0.1,0.1-0.1,0.1c-0.1,0.2-0.2,0.3-0.3,0.4
			c-0.2,0.3-0.3,0.6-0.3,0.9c0,0,0,0,0,0c0,0,0-0.1,0-0.1c-0.1-0.5-0.4-1-0.9-1.3c-0.3-0.2-0.6-0.4-0.9-0.3
			C15.3,14.1,15.2,14.2,15.1,14.2z"/>
		<path d="M15.3,18.9c0-0.2,0.1-0.3,0.2-0.4c0.1-0.2,0.2-0.3,0.2-0.5c0.1-0.1,0.2-0.3,0.3-0.4c0,0.2-0.1,0.4-0.2,0.6
			c0,0.1-0.1,0.3,0,0.4C15.7,18.8,15.5,18.9,15.3,18.9z"/>
		<path d="M8.8,19.6c-0.4,0-0.7-0.1-1.1-0.2c-0.4-0.1-0.8-0.3-1.1-0.5c0,0-0.1-0.1-0.1-0.1c0.1,0.1,0.3,0.2,0.4,0.2
			c0.5,0.3,1.1,0.5,1.7,0.5C8.7,19.5,8.8,19.5,8.8,19.6z"/>
		<path d="M6.5,18.8C6.5,18.8,6.5,18.7,6.5,18.8C6.5,18.7,6.5,18.7,6.5,18.8z"/>
		<path d="M17.1,5.3C17,6,16.7,6.6,16.1,7c-0.7,0.6-1.4,1-2.2,1.3c-1.1,0.5-2.2,0.9-3.3,1.3c-0.8,0.3-1.7,0.6-2.5,1
			c-0.7,0.3-1.4,0.7-1.9,1.3c-0.4,0.4-0.8,0.9-0.9,1.6c0-0.7,0.2-1.2,0.6-1.6c0.5-0.6,1.1-1,1.7-1.3C8.4,10,9.2,9.7,10,9.4
			c0.4-0.2,0.8-0.3,1.2-0.5c1.2-0.5,2.5-0.9,3.7-1.6c0.6-0.3,1.2-0.7,1.7-1.2C16.8,5.9,17,5.7,17.1,5.3z"/>
		<path d="M19.6,16c0-0.4,0-0.7-0.1-1c-0.2-0.5-0.7-0.8-1.2-0.6c-0.1,0-0.1,0-0.2,0c0.3-0.3,0.8-0.4,1.2,0c0.4,0.4,0.4,0.8,0.3,1.3
			C19.6,15.8,19.6,15.9,19.6,16z"/>
		<path d="M15.1,18.7C15.1,18.7,15.1,18.7,15.1,18.7C15.1,18.7,15.1,18.7,15.1,18.7C15.1,18.7,15.1,18.7,15.1,18.7z"/>
	</g>
	<path class="st0" d="M21,28.2c0,0,0,0.1,0,0.1c-0.4,0.6-0.8,1.2-1.3,1.7c-0.5,0.6-1,1.1-1.5,1.6c-0.8,0.8-1.7,1.4-2.7,2
		c-0.6,0.3-1.3,0.6-2,0.8c-0.8,0.2-1.5,0.2-2.3-0.1c-0.5-0.2-0.9-0.6-1.3-1.1c-0.5-0.7-0.8-1.5-1.1-2.3c-0.2-0.6-0.3-1.2-0.4-1.8
		c-0.1-1-0.1-1.9-0.1-2.9c0-0.7,0.1-1.4,0.2-2.1c0.1-0.4,0.2-0.9,0.3-1.3c0.1-0.5,0.3-1,0.6-1.5c0-0.1,0.1-0.1,0.1-0.1c0,0,0,0,0,0
		c0.2,0.4,0.4,0.7,0.6,1c0.5,0.8,1.2,1.4,2,1.8c0.3,0.1,0.6,0.3,0.9,0.3c1.1,0,2.1-0.4,3.1-1c1.1-0.7,1.9-1.6,2.6-2.7
		c0.1-0.2,0.1-0.2,0.3-0.1c1.5,0.8,2.3,2,2.5,3.7c0.1,1.4-0.3,2.6-1.2,3.7c-0.5,0.6-1.1,1.2-1.8,1.6c0,0-0.1,0-0.1,0.1
		c0.1,0,0.1,0,0.1,0c0.6-0.2,1.2-0.6,1.7-0.9C20.5,28.5,20.8,28.4,21,28.2z"/>
	<path class="st0" d="M6.1,19.4c-0.2-0.2-0.4-0.5-0.6-0.7c-0.6-0.7-0.9-1.6-1-2.5c-0.1-0.7-0.1-1.4-0.1-2.1c0.1-0.9,0.2-1.7,0.4-2.6
		c0.3-1,0.7-1.9,1.2-2.8C6.4,8,6.9,7.3,7.5,6.6c0.7-0.8,1.5-1.5,2.4-2c1-0.6,2-1,3.2-1.3c0.5-0.1,1.1-0.2,1.6-0.2
		c0.6,0,1.1,0.1,1.6,0.4c0.3,0.1,0.6,0.3,0.9,0.6c0.3,0.4,0.4,0.8,0.3,1.3c-0.2,0.8-0.6,1.4-1.1,1.9C15.8,8,15,8.4,14.2,8.8
		c-1.1,0.5-2.3,0.9-3.5,1.3c-0.3,0.1-0.5,0.2-0.8,0.3c-0.4,0.2-0.8,0.3-1.2,0.6c-0.6,0.3-1.1,0.7-1.5,1.1c-0.4,0.4-0.8,0.9-1.1,1.4
		c-0.5,0.9-0.8,1.8-0.7,2.8c0,0.6,0.2,1.2,0.6,1.8c0.1,0.2,0.3,0.5,0.5,0.7c0,0,0,0.1,0.1,0.1l0,0c0,0,0,0,0,0c0,0,0.1,0.1,0.1,0.1
		c0.3,0.3,0.7,0.4,1.1,0.5c0.3,0.1,0.7,0.1,1.1,0.2c0,0,0,0.1,0,0.1c-0.5,0.1-0.9,0.1-1.4,0.1c-0.4,0-0.8-0.1-1.2-0.3
		C6.2,19.4,6.2,19.4,6.1,19.4z M17.2,5.3c-0.1,0.3-0.3,0.6-0.5,0.8C16.2,6.7,15.6,7,15,7.4c-1.2,0.6-2.5,1.1-3.7,1.6
		c-0.4,0.2-0.8,0.3-1.2,0.5C9.3,9.7,8.5,10,7.8,10.5c-0.6,0.4-1.2,0.8-1.7,1.3c-0.4,0.5-0.6,1-0.6,1.6c0.1-0.7,0.4-1.2,0.9-1.6
		c0.6-0.5,1.2-0.9,1.9-1.3c0.8-0.4,1.6-0.7,2.5-1c1.1-0.4,2.2-0.8,3.3-1.3C14.8,8,15.6,7.6,16.2,7C16.7,6.6,17.1,6,17.2,5.3z"/>
	<path class="st0" d="M15.2,14.2c0.1,0,0.3-0.1,0.4-0.1c0.4,0,0.7,0.1,0.9,0.3c0.4,0.3,0.7,0.8,0.9,1.3c0,0,0,0.1,0,0.1c0,0,0,0,0,0
		c0-0.3,0.1-0.6,0.3-0.9c0.1-0.2,0.2-0.3,0.3-0.4c0-0.1,0.1,0,0.1-0.1c0.1,0,0.1,0,0.2,0c0.5-0.2,1.1,0.1,1.2,0.6
		c0.1,0.3,0.1,0.7,0.1,1c-0.3,0.8-0.8,1.3-1.5,1.7c-0.7,0.4-1.5,0.7-2.3,1c0-0.1,0-0.3,0-0.4c0.1-0.2,0.2-0.4,0.2-0.6
		c0.2-0.4,0.3-0.8,0.2-1.2c-0.1-0.5-0.4-0.9-0.7-1.3c-0.2-0.2-0.3-0.4-0.5-0.5C15.1,14.5,15.2,14.4,15.2,14.2
		C15.2,14.2,15.2,14.2,15.2,14.2z"/>
	<path class="st0" d="M15.4,18.9c-0.3,0.2-0.7,0.4-1,0.6c-0.5,0.4-0.8,0.8-0.9,1.4c0,0,0,0,0,0.1c-0.1-0.5-0.2-1-0.3-1.5
		c-0.1-0.4-0.1-0.9-0.2-1.3c-0.1-0.6-0.2-1.2-0.3-1.8c0.1-0.1,0.2-0.3,0.2-0.4c0.3-0.5,0.8-0.7,1.3-0.8c0,0,0.1,0,0.1,0
		c0.4,0.5,0.7,1,0.9,1.6c0.2,0.6,0.2,1.2-0.1,1.8c0,0-0.1,0.1,0,0.1c0,0,0,0,0,0c0,0,0,0,0,0c0.2-0.2,0.4-0.3,0.5-0.5
		c0,0,0.1-0.1,0.1-0.1c0,0.2-0.2,0.3-0.2,0.5C15.5,18.7,15.4,18.8,15.4,18.9z"/>
</g>
</svg>
