<?xml version="1.0" encoding="utf-8"?>
<!-- Generator: Adobe Illustrator 23.0.1, SVG Export Plug-In . SVG Version: 6.00 Build 0)  -->
<svg version="1.1" id="Calque_1" xmlns="http://www.w3.org/2000/svg" xmlns:xlink="http://www.w3.org/1999/xlink" x="0px" y="0px"
	 viewBox="0 0 200 36" style="enable-background:new 0 0 200 36;" xml:space="preserve">
<style type="text/css">
	.st0{fill:#F5ACAD;}
</style>
<g>
	<g>
		<path d="M16.3,24.9c-0.2,0.1-0.3,0.2-0.5,0.3c-0.4,0.3-0.8,0.5-1.2,0.7c0,0-0.1,0-0.1,0c0-0.1,0-0.1,0.1-0.1
			c0.5-0.3,0.9-0.7,1.3-1.2c0.6-0.8,0.9-1.6,0.8-2.6c-0.1-1.2-0.7-2.1-1.8-2.7c-0.2-0.1-0.1-0.1-0.2,0.1c-0.5,0.8-1.1,1.4-1.9,1.9
			c-0.7,0.4-1.4,0.7-2.2,0.7c-0.2,0-0.4-0.1-0.6-0.2c-0.6-0.3-1.1-0.8-1.4-1.3c-0.2-0.2-0.3-0.5-0.4-0.7c0,0,0,0,0,0
			c-0.1-0.2-0.2-0.4-0.3-0.7c-0.1-0.1-0.1-0.3-0.2-0.4c0,0,0,0,0-0.1c0-0.1,0-0.1-0.1-0.1c-0.4,0-0.9-0.1-1.3-0.3
			c-0.1-0.1-0.2-0.1-0.3-0.2l0,0l0,0c0,0,0-0.1-0.1-0.1c-0.2-0.1-0.3-0.3-0.4-0.5c-0.2-0.4-0.4-0.8-0.4-1.3c-0.1-0.7,0.2-1.4,0.5-2
			c0.2-0.4,0.5-0.7,0.8-1c0.3-0.3,0.7-0.6,1.1-0.8c0.3-0.2,0.5-0.3,0.8-0.4c0.2-0.1,0.4-0.2,0.5-0.2c0.8-0.3,1.7-0.6,2.5-0.9
			c0.6-0.3,1.1-0.6,1.6-1c0.4-0.4,0.7-0.8,0.8-1.4c0.1-0.3,0-0.7-0.2-0.9c-0.2-0.2-0.4-0.3-0.6-0.4c-0.4-0.2-0.8-0.2-1.2-0.3
			c-0.4,0-0.8,0-1.2,0.1C9.7,7.2,9,7.5,8.3,7.9C7.6,8.3,7.1,8.8,6.6,9.4c-0.4,0.5-0.8,1-1.1,1.5c-0.4,0.6-0.7,1.3-0.9,2
			c-0.2,0.6-0.3,1.2-0.3,1.9c0,0.5,0,1,0.1,1.5c0.1,0.7,0.3,1.3,0.8,1.8c0.1,0.2,0.3,0.3,0.5,0.5C5.7,18.7,5.9,18.9,6,19
			c0.3,0.3,0.6,0.5,0.8,0.9c0.3,0.5,0.3,1.3-0.3,1.6c-0.4,0.3-0.8,0.4-1.3,0.1C5.1,21.5,5,21.3,5,21c0.1,0.3,0.4,0.4,0.7,0.4
			c0.1,0,0.2,0,0.3,0c0.3-0.1,0.5-0.3,0.5-0.6c0.1-0.4,0-0.7-0.3-1c-0.3-0.3-0.6-0.5-0.8-0.8c-0.5-0.4-0.9-0.8-1.2-1.4
			c-0.2-0.3-0.3-0.6-0.5-1c-0.3-0.9-0.4-1.9-0.3-2.8c0.1-0.6,0.2-1.2,0.4-1.8c0.3-1,0.7-1.9,1.3-2.7c0.4-0.6,0.8-1.2,1.4-1.7
			c0.5-0.5,1-0.9,1.6-1.3c0.7-0.4,1.5-0.7,2.3-0.8c0.5,0,1,0,1.5,0.1c0.5,0.1,1,0.4,1.4,0.8c0.2,0.2,0.4,0.4,0.5,0.6
			c0.3,0.4,0.3,0.9,0.3,1.4c0,0.2-0.1,0.5-0.2,0.7c0,0,0,0.1,0,0.1c0,0.6-0.1,1.1-0.3,1.6c-0.3,0.6-0.6,1.1-1.1,1.5
			c-0.3,0.2-0.6,0.4-0.9,0.4c-0.5,0.1-0.9-0.2-1.3-0.5c-0.1-0.1-0.1-0.1-0.2,0c0,0,0,0,0,0.1c-0.1,0.3,0,0.6,0.2,0.9
			c0.2,0.3,0.5,0.6,0.8,0.9c0.3,0.3,0.7,0.6,1,0.9c0.1,0.1,0.3,0.3,0.4,0.4c0.2,0.3,0.4,0.6,0.5,0.9c0.1,0.3,0,0.6-0.2,0.8
			c-0.1,0.1-0.1,0.2-0.2,0.3c0,0-0.1,0.1-0.1,0.1c-0.1,0.1-0.2,0.3-0.4,0.4c0,0,0,0,0,0c0,0,0-0.1,0-0.1c0.2-0.4,0.2-0.9,0.1-1.3
			c-0.1-0.4-0.4-0.8-0.7-1.1c-0.2-0.3-0.5-0.6-0.7-0.9c-0.2-0.3-0.5-0.6-0.6-0.9c-0.2-0.4-0.3-0.8-0.1-1.3c-0.2,0.1-0.4,0.1-0.5,0.2
			c-0.5,0.2-1,0.4-1.5,0.7c-0.1,0-0.2,0.1-0.2,0.2c-0.2,0.3-0.3,0.6-0.5,1c-0.2,0.5-0.2,1-0.1,1.5c0,0.1,0,0.3,0.1,0.4c0,0,0,0,0,0
			c0,0,0,0.1,0,0.1c0.1,0.4,0.2,0.8,0.3,1.1c0.1,0.2,0.1,0.2,0.3,0.2c0.7-0.1,1-0.8,0.9-1.3c-0.1-0.4-0.4-0.7-0.8-0.7
			c-0.3,0-0.5,0.1-0.6,0.3c-0.1,0.1-0.1,0.2-0.2,0.2c0-0.3,0.2-0.5,0.4-0.7c0.4-0.3,0.9-0.3,1.3,0c0.4,0.3,0.5,0.7,0.5,1.2
			c-0.1,0.5-0.3,0.9-0.6,1.2c-0.2,0.2-0.5,0.3-0.8,0.4c-0.1,0-0.1,0.1-0.1,0.1c0.3,0.7,0.6,1.4,1.1,2c0.3,0.4,0.7,0.7,1.2,0.8
			c0.4,0.1,0.8,0.1,1.2-0.1c0.4-0.1,0.8-0.3,1.1-0.6c0.9-0.7,1.6-1.6,2.2-2.6c0.3-0.5,0.6-1.1,0.8-1.6c0.2-0.4,0.3-0.9,0.2-1.4
			c0-0.1,0-0.1,0-0.2c0.1,0.2,0.1,0.3,0.1,0.5c0,0.6-0.1,1.1-0.3,1.7c-0.2,0.5-0.4,1-0.6,1.5c0.1,0,0.3,0.1,0.4,0.1
			c0.5,0.2,1,0.5,1.3,0.9c0.7,0.8,0.9,1.7,0.8,2.7c-0.1,0.7-0.3,1.2-0.8,1.8C16.8,24.5,16.5,24.7,16.3,24.9z M7.2,13.9
			C7,14,6.9,14.1,6.8,14.2c-0.5,0.5-0.8,1-1,1.6c-0.1,0.8,0.2,1.6,1,1.9c0.1,0.1,0.3,0.1,0.4,0.1c-0.1-0.5-0.3-1-0.4-1.5
			c-0.1-0.7-0.2-1.4,0.1-2.1C7.1,14.1,7.1,14,7.2,13.9z M13.2,10.5c-0.8,0.9-1.9,1.3-3,1.8c0.1,0.1,0.2,0.1,0.2,0.2
			c0.3,0.2,0.6,0.2,0.9,0.2c0.3-0.1,0.5-0.2,0.7-0.4c0.5-0.4,0.8-0.9,1-1.5C13.2,10.7,13.2,10.6,13.2,10.5z"/>
		<path d="M12.1,14.8c0.4-0.6,1.4-0.4,1.6,0.4c0-0.2,0.1-0.3,0.2-0.5c0.2-0.4,0.6-0.6,1-0.5c0.5,0,0.9,0.4,0.9,0.9
			c0,0.4-0.1,0.7-0.2,1c-0.2,0.4-0.5,0.7-0.8,1c-0.6,0.5-1.2,0.9-1.8,1.3c-0.5,0.4-1,0.8-1.5,1.2c-0.2,0.2-0.3,0.4-0.4,0.6
			c0,0.1-0.1,0.2-0.1,0.4c-0.1-0.1-0.1-0.2-0.2-0.4c-0.4-0.8-0.6-1.7-0.7-2.5c-0.1-0.6-0.1-1.2-0.2-1.8c0-0.4-0.1-0.7-0.3-1.1
			c-0.3-0.4-0.6-0.7-1-0.9c0,0-0.1,0-0.1,0c0,0-0.1,0-0.1,0c0.4,0,0.8,0.1,1.1,0.4c0.3,0.3,0.5,0.6,0.7,1c0.1,0.3,0.2,0.6,0.3,0.9
			c0.1,0.4,0.2,0.9,0.2,1.3c0,0.3,0.1,0.6,0.1,0.9c0.1,0.4,0.1,0.7,0.2,1.1c0,0,0,0,0-0.1c0.1-0.4,0.3-0.7,0.7-1
			c0.2-0.2,0.4-0.3,0.7-0.4c0.1-0.1,0.3-0.1,0.4-0.2c0.5-0.2,1.1-0.4,1.6-0.7c0.5-0.3,0.9-0.7,1.1-1.2c0-0.1,0-0.1,0-0.2
			c0.1-0.3,0-0.7-0.2-0.9c-0.3-0.3-0.6-0.2-0.9,0c0,0.1-0.1,0-0.1,0.1c-0.1,0.1-0.2,0.2-0.2,0.3c-0.1,0.2-0.2,0.4-0.2,0.7
			c0,0,0,0,0,0c0,0,0,0,0-0.1c-0.1-0.4-0.3-0.7-0.6-1c-0.2-0.2-0.4-0.3-0.7-0.2C12.3,14.7,12.2,14.8,12.1,14.8z"/>
		<path d="M12.3,18.2c0-0.1,0.1-0.2,0.2-0.3c0.1-0.1,0.2-0.2,0.2-0.3c0.1-0.1,0.1-0.2,0.2-0.3c0,0.2-0.1,0.3-0.1,0.5
			c0,0.1-0.1,0.2,0,0.3C12.5,18.1,12.4,18.2,12.3,18.2z"/>
		<path d="M7.6,18.7c-0.3,0-0.5,0-0.8-0.1c-0.3-0.1-0.5-0.2-0.8-0.4c0,0,0,0-0.1-0.1c0.1,0,0.2,0.1,0.3,0.2
			C6.6,18.5,7.1,18.6,7.6,18.7C7.5,18.6,7.6,18.6,7.6,18.7z"/>
		<path d="M6,18.1C5.9,18.1,5.9,18.1,6,18.1C5.9,18.1,6,18.1,6,18.1z"/>
		<path d="M13.6,8.5c-0.1,0.5-0.3,0.9-0.7,1.2c-0.5,0.4-1,0.7-1.6,0.9c-0.8,0.3-1.6,0.6-2.4,0.9c-0.6,0.2-1.2,0.4-1.8,0.7
			c-0.5,0.2-1,0.5-1.4,0.9c-0.3,0.3-0.5,0.7-0.6,1.1c0-0.5,0.1-0.8,0.4-1.2c0.3-0.4,0.8-0.7,1.2-1c0.5-0.3,1.1-0.5,1.7-0.8
			C8.8,11.2,9,11.1,9.3,11c0.9-0.4,1.8-0.7,2.7-1.1c0.4-0.2,0.8-0.5,1.2-0.8C13.4,8.9,13.5,8.7,13.6,8.5z"/>
		<path d="M15.4,16.1c0-0.3,0-0.5-0.1-0.7c-0.1-0.4-0.5-0.6-0.9-0.4c0,0-0.1,0-0.1,0c0.2-0.2,0.6-0.3,0.9,0c0.3,0.3,0.3,0.6,0.2,0.9
			C15.4,16,15.4,16,15.4,16.1z"/>
		<path d="M12.2,18.1C12.1,18.1,12.1,18.1,12.2,18.1C12.1,18.1,12.1,18.1,12.2,18.1C12.1,18.1,12.2,18.1,12.2,18.1z"/>
	</g>
	<path class="st0" d="M16.4,24.9C16.4,24.9,16.4,25,16.4,24.9c-0.3,0.5-0.6,0.9-0.9,1.3c-0.3,0.4-0.7,0.8-1.1,1.1
		c-0.6,0.5-1.2,1-2,1.4c-0.5,0.3-0.9,0.5-1.5,0.6c-0.6,0.1-1.1,0.1-1.7-0.1c-0.4-0.2-0.7-0.4-0.9-0.8C8,28,7.8,27.4,7.6,26.9
		c-0.1-0.4-0.2-0.9-0.3-1.3c-0.1-0.7-0.1-1.4-0.1-2.1c0-0.5,0.1-1,0.2-1.5c0.1-0.3,0.1-0.6,0.2-0.9c0.1-0.4,0.2-0.7,0.4-1.1
		c0,0,0-0.1,0.1-0.1c0,0,0,0,0,0c0.1,0.3,0.3,0.5,0.4,0.7c0.4,0.5,0.8,1,1.4,1.3c0.2,0.1,0.4,0.2,0.6,0.2c0.8,0,1.5-0.3,2.2-0.7
		c0.8-0.5,1.4-1.2,1.9-1.9c0.1-0.2,0.1-0.1,0.2-0.1c1.1,0.6,1.7,1.5,1.8,2.7c0.1,1-0.2,1.9-0.8,2.6c-0.4,0.5-0.8,0.8-1.3,1.2
		c0,0-0.1,0-0.1,0.1c0,0,0.1,0,0.1,0c0.4-0.2,0.8-0.4,1.2-0.7C16,25.1,16.2,25,16.4,24.9z"/>
	<path class="st0" d="M5.7,18.6c-0.2-0.2-0.3-0.3-0.5-0.5c-0.4-0.5-0.7-1.1-0.8-1.8c-0.1-0.5-0.1-1-0.1-1.5c0-0.6,0.1-1.2,0.3-1.9
		c0.2-0.7,0.5-1.4,0.9-2c0.3-0.5,0.7-1,1.1-1.5c0.5-0.6,1.1-1.1,1.7-1.5C9,7.5,9.8,7.2,10.6,7C11,7,11.4,6.9,11.8,6.9
		c0.4,0,0.8,0.1,1.2,0.3c0.2,0.1,0.5,0.2,0.6,0.4c0.2,0.3,0.3,0.6,0.2,0.9c-0.1,0.5-0.4,1-0.8,1.4c-0.4,0.5-1,0.8-1.6,1
		c-0.8,0.4-1.7,0.6-2.5,0.9c-0.2,0.1-0.4,0.2-0.5,0.2c-0.3,0.1-0.6,0.2-0.8,0.4c-0.4,0.2-0.8,0.5-1.1,0.8c-0.3,0.3-0.6,0.6-0.8,1
		c-0.4,0.6-0.6,1.3-0.5,2c0,0.5,0.2,0.9,0.4,1.3c0.1,0.2,0.2,0.3,0.4,0.5c0,0,0,0.1,0.1,0.1l0,0c0,0,0,0,0,0c0,0,0,0,0.1,0.1
		c0.2,0.2,0.5,0.3,0.8,0.4c0.2,0.1,0.5,0.1,0.8,0.1c0,0,0,0,0,0.1c-0.3,0.1-0.7,0.1-1,0.1C6.3,18.8,6.1,18.7,5.7,18.6
		C5.7,18.6,5.7,18.6,5.7,18.6z M13.6,8.5c-0.1,0.2-0.2,0.4-0.4,0.6c-0.3,0.4-0.8,0.6-1.2,0.8c-0.9,0.4-1.8,0.8-2.7,1.1
		c-0.3,0.1-0.6,0.2-0.9,0.3c-0.6,0.2-1.1,0.5-1.7,0.8c-0.5,0.3-0.9,0.6-1.2,1c-0.3,0.3-0.4,0.7-0.4,1.2c0.1-0.5,0.3-0.8,0.6-1.1
		c0.4-0.4,0.9-0.7,1.4-0.9C7.8,12,8.4,11.7,9,11.5c0.8-0.3,1.6-0.6,2.4-0.9c0.6-0.3,1.1-0.5,1.6-0.9C13.3,9.4,13.6,9,13.6,8.5z"/>
	<path class="st0" d="M12.2,14.8c0.1,0,0.2-0.1,0.3-0.1c0.3,0,0.5,0.1,0.7,0.2c0.3,0.2,0.5,0.6,0.6,1c0,0,0,0,0,0.1c0,0,0,0,0,0
		c0-0.2,0.1-0.5,0.2-0.7c0.1-0.1,0.2-0.2,0.2-0.3c0,0,0.1,0,0.1-0.1c0,0,0.1,0,0.1,0c0.4-0.1,0.8,0,0.9,0.4c0.1,0.2,0.1,0.5,0.1,0.7
		c-0.2,0.6-0.6,1-1.1,1.2c-0.5,0.3-1.1,0.5-1.6,0.7c0-0.1,0-0.2,0-0.3c0-0.2,0.1-0.3,0.1-0.5c0.1-0.3,0.2-0.5,0.2-0.8
		c-0.1-0.4-0.3-0.7-0.5-0.9c-0.1-0.1-0.2-0.3-0.4-0.4C12.2,15.1,12.2,15,12.2,14.8C12.2,14.8,12.2,14.8,12.2,14.8z"/>
	<path class="st0" d="M12.3,18.2c-0.2,0.1-0.5,0.3-0.7,0.4c-0.3,0.3-0.6,0.6-0.7,1c0,0,0,0,0,0.1c-0.1-0.4-0.1-0.7-0.2-1.1
		c0-0.3-0.1-0.6-0.1-0.9c0-0.4-0.1-0.9-0.2-1.3c0.1-0.1,0.1-0.2,0.2-0.3c0.2-0.3,0.6-0.5,1-0.6c0,0,0,0,0.1,0
		c0.3,0.3,0.5,0.7,0.7,1.1c0.2,0.5,0.1,0.9-0.1,1.3c0,0,0,0.1,0,0.1c0,0,0,0,0,0c0,0,0,0,0,0c0.1-0.1,0.3-0.2,0.4-0.4
		c0,0,0-0.1,0.1-0.1c0,0.1-0.1,0.2-0.2,0.3C12.4,18.1,12.4,18.1,12.3,18.2z"/>
</g>
<g>
	<path d="M30.5,28h-3.5L34,7.1h3.5L44.1,28h-3.2L39,22.5l-0.9-3.5l-0.2-0.5v-0.2l-1.6-4.8c-0.1-0.5-0.2-0.9-0.3-1.3
		c-0.1-0.4-0.2-0.8-0.3-1.3c-0.1,0.5-0.3,0.9-0.4,1.4c-0.1,0.4-0.2,0.8-0.3,1.2l-1.6,5.5h3.9l0.7,2.5h-5.5L30.5,28z"/>
	<path d="M49.6,7.1l12.2,21h-3.7l-2.5-4.6c-0.5-0.7-0.9-1.3-1.2-1.9s-0.6-1.1-0.9-1.5c-0.2,0.5-0.5,1-0.8,1.5s-0.6,1.2-1.1,2
		l-2.3,4.6h-3.7l6-10.6L45.9,7.1H49.6z M54.4,13.5c0.1-0.3,0.2-0.6,0.3-0.8c0.1-0.2,0.2-0.5,0.4-0.8l2.8-4.8h3.7L56,16.5L54.4,13.5z
		"/>
	<path d="M67.5,7.1l12.2,21h-3.7l-2.5-4.6c-0.5-0.7-0.9-1.3-1.2-1.9C72,21,71.7,20.5,71.5,20c-0.2,0.5-0.5,1-0.8,1.5s-0.6,1.2-1.1,2
		l-2.3,4.6h-3.7l6-10.6L63.9,7.1H67.5z M72.4,13.5c0.1-0.3,0.2-0.6,0.3-0.8c0.1-0.2,0.2-0.5,0.4-0.8l2.8-4.8h3.7L74,16.5L72.4,13.5z
		"/>
	<path d="M92.9,7.1h3.1v12c0,1.4-0.2,2.6-0.5,3.7c-0.3,1.1-0.8,2-1.4,2.8c-0.6,0.8-1.4,1.3-2.3,1.8c-0.9,0.4-2,0.6-3.1,0.6
		c-1.6,0-2.8-0.3-3.8-0.9c-0.9-0.6-1.7-1.4-2.1-2.3c-0.5-0.9-0.8-1.9-1-2.9c-0.2-1-0.2-2-0.2-2.8v-12h3.1v12c0,2,0.4,3.5,1.1,4.5
		c0.7,1,1.7,1.5,2.9,1.5c0.9,0,1.6-0.2,2.2-0.5c0.5-0.4,1-0.8,1.3-1.4c0.3-0.6,0.5-1.2,0.6-1.9c0.1-0.7,0.2-1.4,0.2-2.2V7.1z"/>
	<path d="M117.8,17.6c-0.6-1-1.1-2-1.6-2.9c-0.5-0.9-1-1.7-1.3-2.6c0.1,1,0.2,2.1,0.2,3.2c0,1.1,0,2.3,0,3.6V28h-3V7.1h3.2l6.1,10.5
		c0.6,0.8,1.1,1.7,1.5,2.5c0.4,0.9,0.8,1.7,1.3,2.5L127,28h-3L117.8,17.6z M124,20.3V16V7.1h3v19.1L124,20.3z"/>
	<path d="M136.9,26.2c-1,1.2-2.6,1.8-4.6,1.8c-0.4,0-0.9-0.1-1.4-0.2c-0.5-0.1-0.9-0.2-1.3-0.3l-0.2-0.3l0.4-2.7l0.5,0.3
		c0.2,0.1,0.5,0.2,0.8,0.2c0.3,0,0.6,0,1,0c0.4,0,0.8,0,1.2-0.1s0.7-0.2,1-0.5c0.3-0.3,0.5-0.7,0.7-1.4c0.2-0.6,0.3-1.4,0.3-2.5V7.1
		h3.2v13.7C138.4,23.2,137.9,25,136.9,26.2z"/>
	<path d="M151.5,7.1h3.1v12c0,1.4-0.2,2.6-0.5,3.7c-0.3,1.1-0.8,2-1.4,2.8c-0.6,0.8-1.4,1.3-2.3,1.8c-0.9,0.4-2,0.6-3.1,0.6
		c-1.6,0-2.8-0.3-3.8-0.9c-0.9-0.6-1.7-1.4-2.1-2.3c-0.5-0.9-0.8-1.9-1-2.9c-0.2-1-0.2-2-0.2-2.8v-12h3.1v12c0,2,0.4,3.5,1.1,4.5
		c0.7,1,1.7,1.5,2.9,1.5c0.9,0,1.6-0.2,2.2-0.5c0.5-0.4,1-0.8,1.3-1.4c0.3-0.6,0.5-1.2,0.6-1.9c0.1-0.7,0.2-1.4,0.2-2.2V7.1z"/>
	<path d="M164.9,15.8c0.7-0.6,1-1.5,1-2.5c0-0.7-0.1-1.3-0.3-1.8c-0.2-0.4-0.5-0.8-0.9-1c-0.4-0.2-0.8-0.4-1.2-0.5
		c-0.5-0.1-0.9-0.1-1.4-0.1h-2V28h-3.2V7.6h0.2c0.6-0.1,1.3-0.2,2.1-0.3c0.8-0.1,1.7-0.1,2.6-0.1c1.4,0,2.5,0.1,3.4,0.4
		c0.9,0.2,1.7,0.7,2.2,1.2c0.6,0.6,1,1.2,1.2,1.9c0.3,0.7,0.4,1.4,0.4,2.2c0,1.2-0.3,2.3-0.8,3.2c-0.5,0.9-1.3,1.6-2.4,2
		c0.6,0.3,1.1,0.8,1.5,1.5c0.4,0.7,0.8,1.5,1,2.5c0.2,1.4,0.5,2.5,0.7,3.5c0.2,1,0.5,1.6,0.7,1.9L170,28h-3.2l-0.2-0.2
		c-0.1-0.2-0.3-0.7-0.5-1.4s-0.4-1.8-0.6-3.3c-0.2-0.7-0.4-1.2-0.6-1.7c-0.2-0.5-0.5-0.8-0.7-1.1c-0.3-0.3-0.6-0.5-1-0.6
		c-0.4-0.1-0.8-0.2-1.3-0.2h-1.1v-2.7h1.4C163.3,16.7,164.3,16.4,164.9,15.8z"/>
	<path d="M174.9,18.6v5.7h-3.2V7.1h11v2.8h-7.8v5.7h7.4v3H174.9z M183.2,25.3V28h-11.5v-2.8h3.2H183.2z"/>
	<path d="M196.4,28h-11.3v-21h3.2v18h8.1V28z"/>
</g>
<g>
	<g>
		<path d="M193.6,8.5c-2.1,0-3.7-1.7-3.7-3.7s1.7-3.7,3.7-3.7s3.7,1.7,3.7,3.7S195.7,8.5,193.6,8.5z M193.6,1.2
			c-1.9,0-3.5,1.6-3.5,3.5c0,1.9,1.6,3.5,3.5,3.5s3.5-1.6,3.5-3.5C197.1,2.8,195.6,1.2,193.6,1.2z"/>
	</g>
	<g>
		<path d="M192.3,4.6c0.3,0.1,0.5,0.3,0.6,0.4s0.2,0.4,0.2,0.6c0,0.1,0,0.2-0.1,0.4c0,0.1-0.1,0.2-0.2,0.3c-0.1,0.1-0.2,0.2-0.4,0.2
			c-0.1,0.1-0.3,0.1-0.5,0.1c-0.1,0-0.3,0-0.4-0.1c-0.2,0-0.3-0.1-0.4-0.1l0,0l0.1-0.5l0,0c0.1,0.1,0.2,0.1,0.4,0.2s0.2,0.1,0.4,0.1
			c0.2,0,0.3,0,0.4-0.1c0.1-0.1,0.2-0.2,0.2-0.4c0-0.1,0-0.2-0.1-0.3c-0.1-0.1-0.2-0.2-0.4-0.3c-0.3-0.1-0.5-0.2-0.7-0.4
			c-0.1-0.2-0.2-0.3-0.2-0.6c0-0.1,0-0.3,0.1-0.4s0.1-0.2,0.2-0.3c0.1-0.1,0.2-0.2,0.3-0.2c0.1,0,0.3-0.1,0.4-0.1
			c0.2,0,0.3,0,0.4,0.1s0.2,0.1,0.3,0.1h0l-0.2,0.4h-0.1c-0.1,0-0.1-0.1-0.2-0.1c-0.1,0-0.2,0-0.3,0c-0.1,0-0.1,0-0.2,0
			c-0.1,0-0.1,0-0.2,0.1c0,0-0.1,0.1-0.1,0.1c0,0.1,0,0.1,0,0.2c0,0.1,0,0.1,0,0.2c0,0.1,0.1,0.1,0.1,0.1c0,0,0.1,0.1,0.2,0.1
			C192,4.5,192.1,4.5,192.3,4.6z"/>
		<path d="M194.3,4.8c-0.1-0.2-0.2-0.3-0.3-0.5c-0.1-0.1-0.2-0.3-0.2-0.4c0,0.2,0,0.3,0,0.5c0,0.2,0,0.4,0,0.6v1.5h-0.5V3.1h0.5
			l1,1.7c0.1,0.1,0.2,0.3,0.2,0.4c0.1,0.1,0.1,0.3,0.2,0.4l0.5,0.9h-0.5L194.3,4.8z M195.3,5.3V4.6V3.1h0.5v3.2L195.3,5.3z"/>
	</g>
</g>
</svg>
