<?xml version="1.0" encoding="utf-8"?>
<!-- Generator: Adobe Illustrator 23.0.1, SVG Export Plug-In . SVG Version: 6.00 Build 0)  -->
<svg version="1.1" id="Calque_1" xmlns="http://www.w3.org/2000/svg" xmlns:xlink="http://www.w3.org/1999/xlink" x="0px" y="0px"
	 viewBox="0 0 175.7 175.7" style="enable-background:new 0 0 175.7 175.7;" xml:space="preserve">
<style type="text/css">
	.st0{fill:none;stroke:#000000;stroke-width:2;stroke-miterlimit:10;}
	.st1{fill:#F6ADAE;}
</style>
<g>
	<path class="st0" d="M161.3,174.6H14.5c-7.4,0-13.4-6-13.4-13.4V14.5c0-7.4,6-13.4,13.4-13.4h146.8c7.4,0,13.4,6,13.4,13.4v146.8
		C174.6,168.7,168.7,174.6,161.3,174.6z"/>
	<g>
		<path d="M17.1,168.3h-3l5.9-18h3l5.8,18H26l-1.6-4.7l-0.8-3l-0.2-0.4V160l-1.4-4.1c-0.1-0.4-0.2-0.8-0.3-1.1
			c-0.1-0.3-0.2-0.7-0.3-1.1c-0.1,0.4-0.2,0.8-0.3,1.2c-0.1,0.4-0.2,0.7-0.3,1l-1.4,4.7h3.4l0.6,2.2h-4.7L17.1,168.3z"/>
		<path d="M33.5,150.3l10.6,18.1h-3.2l-2.2-4c-0.4-0.6-0.8-1.2-1-1.6s-0.5-0.9-0.7-1.3c-0.2,0.4-0.4,0.8-0.7,1.3s-0.5,1-0.9,1.7
			l-2,4h-3.2l5.2-9.1l-5-9H33.5z M37.7,155.8c0.1-0.3,0.2-0.5,0.3-0.7s0.2-0.4,0.3-0.7l2.4-4.2h3.2l-4.8,8.2L37.7,155.8z"/>
		<path d="M49,150.3l10.6,18.1h-3.2l-2.2-4c-0.4-0.6-0.8-1.2-1-1.6s-0.5-0.9-0.7-1.3c-0.2,0.4-0.4,0.8-0.7,1.3s-0.5,1-0.9,1.7l-2,4
			h-3.2l5.2-9.1l-5-9H49z M53.2,155.8c0.1-0.3,0.2-0.5,0.3-0.7s0.2-0.4,0.3-0.7l2.4-4.2h3.2l-4.8,8.2L53.2,155.8z"/>
		<path d="M70.9,150.3h2.7v10.4c0,1.2-0.1,2.3-0.4,3.2c-0.3,0.9-0.7,1.7-1.2,2.4c-0.5,0.7-1.2,1.2-2,1.5c-0.8,0.4-1.7,0.5-2.7,0.5
			c-1.3,0-2.4-0.3-3.2-0.8c-0.8-0.5-1.4-1.2-1.9-2c-0.4-0.8-0.7-1.6-0.8-2.5c-0.1-0.9-0.2-1.7-0.2-2.4v-10.4h2.7v10.4
			c0,1.7,0.3,3,0.9,3.9c0.6,0.9,1.5,1.3,2.5,1.3c0.8,0,1.4-0.2,1.9-0.5c0.5-0.3,0.8-0.7,1.1-1.2c0.3-0.5,0.4-1,0.5-1.7
			c0.1-0.6,0.1-1.2,0.1-1.9V150.3z"/>
		<path d="M92.4,159.3c-0.5-0.9-1-1.7-1.4-2.5c-0.5-0.8-0.8-1.5-1.1-2.2c0.1,0.9,0.2,1.8,0.2,2.7c0,0.9,0,2,0,3.1v7.9h-2.6v-18.1
			h2.7l5.3,9c0.5,0.7,0.9,1.4,1.3,2.2c0.3,0.7,0.7,1.5,1.1,2.1l2.4,4.7h-2.6L92.4,159.3z M97.7,161.6v-3.7v-7.7h2.6v16.5L97.7,161.6
			z"/>
		<path d="M108.8,166.8c-0.9,1.1-2.2,1.6-4,1.6c-0.4,0-0.8,0-1.2-0.1c-0.4-0.1-0.8-0.2-1.1-0.3l-0.2-0.2l0.4-2.3l0.4,0.2
			c0.2,0.1,0.4,0.2,0.7,0.2c0.3,0,0.6,0,0.8,0c0.3,0,0.7,0,1-0.1s0.6-0.2,0.9-0.5c0.2-0.3,0.5-0.6,0.6-1.2c0.2-0.5,0.2-1.2,0.2-2.2
			v-11.7h2.7v11.8C110.2,164.2,109.7,165.7,108.8,166.8z"/>
		<path d="M121.5,150.3h2.7v10.4c0,1.2-0.1,2.3-0.4,3.2c-0.3,0.9-0.7,1.7-1.2,2.4c-0.5,0.7-1.2,1.2-2,1.5c-0.8,0.4-1.7,0.5-2.7,0.5
			c-1.3,0-2.4-0.3-3.2-0.8c-0.8-0.5-1.4-1.2-1.9-2c-0.4-0.8-0.7-1.6-0.8-2.5c-0.1-0.9-0.2-1.7-0.2-2.4v-10.4h2.7v10.4
			c0,1.7,0.3,3,0.9,3.9c0.6,0.9,1.5,1.3,2.5,1.3c0.8,0,1.4-0.2,1.9-0.5c0.5-0.3,0.8-0.7,1.1-1.2c0.3-0.5,0.4-1,0.5-1.7
			s0.1-1.2,0.1-1.9V150.3z"/>
		<path d="M133,157.8c0.6-0.5,0.9-1.3,0.9-2.1c0-0.6-0.1-1.1-0.3-1.5c-0.2-0.4-0.5-0.7-0.8-0.9c-0.3-0.2-0.7-0.4-1.1-0.4
			c-0.4-0.1-0.8-0.1-1.2-0.1h-1.8v15.6h-2.7v-17.6h0.2c0.5-0.1,1.1-0.2,1.8-0.3c0.7-0.1,1.5-0.1,2.3-0.1c1.2,0,2.2,0.1,2.9,0.3
			c0.8,0.2,1.4,0.6,1.9,1.1c0.5,0.5,0.8,1,1,1.6c0.2,0.6,0.3,1.2,0.3,1.9c0,1.1-0.2,2-0.7,2.8c-0.5,0.8-1.2,1.3-2,1.7
			c0.5,0.3,0.9,0.7,1.3,1.3c0.4,0.6,0.7,1.3,0.9,2.2c0.2,1.2,0.4,2.2,0.6,3c0.2,0.8,0.4,1.4,0.6,1.7l0.2,0.4h-2.7l-0.2-0.2
			c-0.1-0.2-0.2-0.6-0.4-1.2s-0.4-1.6-0.6-2.9c-0.1-0.6-0.3-1.1-0.5-1.5c-0.2-0.4-0.4-0.7-0.6-1c-0.2-0.2-0.5-0.4-0.9-0.5
			c-0.3-0.1-0.7-0.2-1.1-0.2h-1v-2.3h1.2C131.6,158.6,132.5,158.3,133,157.8z"/>
		<path d="M141.7,160.2v5h-2.7v-14.9h9.5v2.4h-6.8v5h6.4v2.6H141.7z M148.8,165.9v2.4h-9.9v-2.4h2.7H148.8z"/>
		<path d="M160.2,168.3h-9.8v-18.1h2.7v15.5h7V168.3z"/>
	</g>
	<g>
		<g>
			<path d="M160.2,151.6c-2.1,0-3.7-1.7-3.7-3.7s1.7-3.7,3.7-3.7s3.7,1.7,3.7,3.7S162.2,151.6,160.2,151.6z M160.2,144.4
				c-1.9,0-3.5,1.6-3.5,3.5c0,1.9,1.6,3.5,3.5,3.5s3.5-1.6,3.5-3.5C163.7,146,162.1,144.4,160.2,144.4z"/>
		</g>
		<g>
			<path d="M158.8,147.8c0.3,0.1,0.5,0.3,0.6,0.4c0.1,0.2,0.2,0.4,0.2,0.6c0,0.1,0,0.2-0.1,0.4c0,0.1-0.1,0.2-0.2,0.3
				c-0.1,0.1-0.2,0.2-0.4,0.2c-0.1,0.1-0.3,0.1-0.5,0.1c-0.1,0-0.3,0-0.4-0.1c-0.2,0-0.3-0.1-0.4-0.1l0,0l0.1-0.5l0,0
				c0.1,0.1,0.2,0.1,0.4,0.2c0.1,0,0.2,0.1,0.4,0.1c0.2,0,0.3,0,0.4-0.1c0.1-0.1,0.2-0.2,0.2-0.4c0-0.1,0-0.2-0.1-0.3
				c-0.1-0.1-0.2-0.2-0.4-0.3c-0.3-0.1-0.5-0.2-0.7-0.4c-0.1-0.2-0.2-0.3-0.2-0.6c0-0.1,0-0.3,0.1-0.4c0.1-0.1,0.1-0.2,0.2-0.3
				c0.1-0.1,0.2-0.2,0.3-0.2c0.1,0,0.3-0.1,0.4-0.1c0.2,0,0.3,0,0.4,0.1c0.1,0,0.2,0.1,0.3,0.1h0l-0.2,0.4h-0.1
				c-0.1,0-0.1-0.1-0.2-0.1c-0.1,0-0.2,0-0.3,0c-0.1,0-0.1,0-0.2,0c-0.1,0-0.1,0-0.2,0.1c0,0-0.1,0.1-0.1,0.1c0,0.1,0,0.1,0,0.2
				c0,0.1,0,0.1,0,0.2c0,0.1,0.1,0.1,0.1,0.1c0,0,0.1,0.1,0.2,0.1C158.6,147.7,158.7,147.7,158.8,147.8z"/>
			<path d="M160.8,148c-0.1-0.2-0.2-0.3-0.3-0.5c-0.1-0.1-0.2-0.3-0.2-0.4c0,0.2,0,0.3,0,0.5c0,0.2,0,0.4,0,0.6v1.5h-0.5v-3.5h0.5
				l1,1.7c0.1,0.1,0.2,0.3,0.2,0.4c0.1,0.1,0.1,0.3,0.2,0.4l0.5,0.9h-0.5L160.8,148z M161.9,148.5v-0.7v-1.5h0.5v3.2L161.9,148.5z"
				/>
		</g>
	</g>
	<g>
		<g>
			<path d="M124.4,117.8c-0.9,0.7-1.9,1.4-2.8,2c-2.3,1.6-4.7,2.9-7.3,3.9c-0.2,0.1-0.3,0.2-0.5,0.2c-0.1-0.3,0.2-0.3,0.3-0.4
				c2.9-1.9,5.5-4.1,7.7-6.8c3.6-4.5,5.5-9.7,5-15.5c-0.7-7-4.1-12.4-10.5-15.7c-1-0.5-0.8-0.6-1.4,0.4c-3,4.5-6.5,8.4-11,11.4
				c-3.9,2.6-8.2,4.1-13,4.1c-1.4,0-2.6-0.7-3.8-1.3c-3.6-1.8-6.2-4.6-8.4-7.8c-0.9-1.4-1.8-2.7-2.5-4.2c0-0.1-0.1-0.1-0.2-0.2
				c-0.6-1.3-1.2-2.6-1.8-3.9c-0.4-0.8-0.6-1.7-1.1-2.4c0-0.1,0-0.3-0.2-0.4c0.1-0.4-0.2-0.3-0.4-0.3c-2.6,0-5.1-0.7-7.4-2
				c-0.6-0.3-1-0.8-1.6-1l0,0l0,0c0-0.3-0.2-0.3-0.4-0.3c-0.9-0.8-1.7-1.8-2.3-2.8c-1.4-2.3-2.2-4.9-2.4-7.6
				c-0.3-4.3,0.9-8.2,3.1-11.9c1.3-2.2,2.9-4,4.7-5.8c2-1.9,4.2-3.5,6.6-4.9c1.6-0.9,3.2-1.7,4.9-2.4c1.1-0.4,2.1-0.9,3.2-1.3
				c4.9-1.7,10-3.3,14.7-5.5c3.4-1.5,6.6-3.4,9.3-6.1c2.2-2.3,4-4.9,4.7-8.1c0.5-2.1,0-3.9-1.3-5.5c-1-1.2-2.3-1.9-3.7-2.5
				c-2.2-1-4.6-1.4-7-1.5c-2.4-0.1-4.7,0.3-7,0.7c-4.8,0.9-9.3,2.7-13.5,5.4c-3.7,2.4-7.1,5.3-10,8.6c-2.4,2.7-4.5,5.6-6.3,8.8
				c-2.2,3.8-3.9,7.8-5.1,12c-1,3.6-1.7,7.2-1.9,11c-0.2,3,0,6,0.4,8.9c0.5,3.9,2,7.4,4.4,10.5c0.8,1.1,1.8,2,2.7,3
				c0.7,0.9,1.7,1.6,2.5,2.4c1.7,1.6,3.5,3.1,4.9,5c2,2.9,1.6,7.5-1.5,9.7c-2.3,1.6-4.7,2.1-7.4,0.9c-1.4-0.6-2.1-2-2-3.6
				c0.7,2,2.4,2.3,4.1,2.5c0.7,0.1,1.4,0,2-0.2c1.8-0.4,2.7-1.6,3-3.3c0.4-2.2-0.3-4.1-1.8-5.8c-1.5-1.6-3.3-3-5-4.4
				c-2.8-2.4-5.3-4.9-7.2-8c-1.1-1.8-2-3.7-2.7-5.8c-1.9-5.5-2.2-11.1-1.7-16.7c0.3-3.6,1.1-7.1,2.2-10.5c1.7-5.7,4.3-11.1,7.5-16.1
				c2.3-3.6,5-6.9,8-10c2.9-2.9,6.1-5.4,9.7-7.5c4.2-2.4,8.7-4,13.6-4.5c3-0.3,5.9-0.2,8.8,0.6c3.2,0.9,6,2.5,8.3,4.9
				c1.1,1.1,2.1,2.2,2.9,3.5c1.6,2.6,2,5.4,1.7,8.3c-0.1,1.4-0.5,2.7-1,4.1c-0.1,0.2-0.2,0.4-0.1,0.6c0.1,3.2-0.7,6.3-2,9.3
				c-1.5,3.5-3.5,6.6-6.4,9c-1.5,1.3-3.3,2.2-5.3,2.5c-3.1,0.4-5.6-0.9-7.6-3.1c-0.3-0.3-0.6-0.4-0.9-0.2c-0.1,0.1-0.2,0.2-0.2,0.3
				c-0.3,1.9,0.1,3.7,1.1,5.4c1.2,2,2.9,3.7,4.6,5.3c2,1.8,4,3.5,6,5.2c0.9,0.7,1.6,1.5,2.3,2.3c1.4,1.6,2.6,3.3,3,5.5
				c0.3,1.8-0.2,3.4-0.9,5c-0.5,0.5-0.8,1.2-1.2,1.8c-0.2,0.1-0.3,0.3-0.5,0.5c-0.7,0.8-1.4,1.5-2.2,2.2c0,0,0,0-0.1-0.1
				c0-0.2,0.1-0.3,0.2-0.5c1.2-2.6,1.4-5.2,0.5-7.8c-0.9-2.5-2.3-4.7-4-6.7c-1.5-1.8-2.9-3.6-4.4-5.3c-1.4-1.7-2.7-3.4-3.7-5.3
				c-1.2-2.4-1.8-4.8-0.9-7.6c-1.1,0.4-2.1,0.8-3.1,1.2c-3,1.1-5.9,2.3-8.7,3.9c-0.5,0.3-0.9,0.6-1.2,1.2c-1,1.9-2,3.8-2.7,5.8
				C71,59.1,70.8,62,71.3,65c0.2,0.9,0.3,1.7,0.6,2.6c0,0.1,0,0.2,0.2,0.1c0,0.2,0,0.4,0,0.7c0.6,2.2,1.3,4.5,2,6.6
				c0.5,1.4,0.5,1.3,1.9,1c4-0.9,5.9-4.9,5.4-7.6c-0.4-2.6-2.3-4.3-4.7-4.1c-1.5,0.1-2.7,0.9-3.6,2c-0.4,0.4-0.7,1-1.1,1.4
				c0.2-1.7,1.1-2.9,2.4-3.8c2.3-1.8,5.5-1.8,7.7,0c2.1,1.8,3.1,4.1,2.8,6.8c-0.3,2.9-1.5,5.4-3.8,7.3c-1.4,1.1-2.9,1.8-4.6,2.3
				c-0.5,0.1-0.4,0.3-0.3,0.7c1.8,4.2,3.7,8.3,6.7,11.8c1.9,2.3,4.1,4.2,7.1,5c2.3,0.6,4.6,0.4,6.9-0.3c2.3-0.7,4.4-1.9,6.4-3.4
				c5.4-4.1,9.4-9.4,12.8-15.2c1.8-3.1,3.3-6.3,4.5-9.7c0.9-2.6,1.6-5.3,1.4-8.1c0-0.3-0.1-0.7-0.1-1.2c0.6,1,0.7,1.8,0.8,2.8
				c0.2,3.5-0.6,6.8-1.5,10.1c-0.9,3-2.2,6-3.7,8.9c0.8,0.2,1.7,0.4,2.5,0.6c3.1,1.1,5.8,2.9,8,5.4c3.9,4.5,5.6,9.7,4.9,15.6
				c-0.4,3.9-2,7.3-4.4,10.4C127.2,115.2,125.8,116.5,124.4,117.8z M70.6,53.1c-0.8,0.4-1.4,1-2,1.6c-2.7,2.7-4.9,5.7-5.6,9.5
				c-0.9,4.5,1.2,9.5,5.9,11.3c0.8,0.3,1.6,0.6,2.5,0.6c-0.9-3-1.7-5.9-2.4-8.9C68.1,63.1,68,59,69.7,55
				C70,54.4,70.3,53.7,70.6,53.1z M106.3,33.2c-4.9,5.2-11.2,8-17.6,10.6c0.4,0.4,0.9,0.8,1.4,1c1.7,1,3.5,1.5,5.4,0.9
				c1.7-0.4,3-1.4,4.2-2.5c2.7-2.5,4.5-5.6,6.1-8.8C106,34.1,106.3,33.7,106.3,33.2z"/>
			<path d="M99.7,58.4c2.4-3.6,8.1-2.6,9.7,2.3c0.2-1.1,0.5-2,1-2.9c1.2-2.1,3.4-3.3,5.8-3.1c3,0.2,5.1,2.6,5.2,5.5
				c0.1,2.1-0.6,4-1.4,5.8c-1.1,2.4-2.8,4.3-4.8,6.1c-3.3,2.9-6.9,5.4-10.4,7.9c-3.1,2.2-6.2,4.5-8.8,7.3c-1.1,1.1-2,2.4-2.5,3.8
				c-0.3,0.7-0.4,1.3-0.4,2.2c-0.5-0.7-0.8-1.4-1.1-2.1c-2.3-4.7-3.5-9.7-4.3-14.9c-0.5-3.5-0.8-7.1-1.2-10.6
				c-0.3-2.2-0.7-4.3-1.9-6.3c-1.5-2.4-3.6-4-6.2-5.1c-0.2-0.1-0.4-0.2-0.6-0.2c-0.2-0.1-0.4-0.1-0.5-0.2c2.4-0.1,4.5,0.7,6.4,2.2
				c2,1.6,3.2,3.7,4.1,6c0.7,1.8,1.2,3.7,1.7,5.6c0.5,2.5,0.9,5.1,1.2,7.7c0.2,1.8,0.5,3.7,0.8,5.5c0.3,2.1,0.6,4.1,1.2,6.3
				c0.1-0.2,0.1-0.2,0.1-0.3c0.6-2.4,1.9-4.3,3.9-5.8c1.3-1,2.6-1.8,4.1-2.5c0.7-0.4,1.5-0.6,2.2-1c3.2-1.4,6.5-2.6,9.6-4.2
				c3.1-1.6,5.3-3.9,6.4-7.3c0.1-0.4,0.2-0.8,0.3-1.2c0.3-2.1,0.1-3.9-1.4-5.5c-1.6-1.6-3.7-1.4-5.2-0.1c0,0.4-0.4,0.2-0.6,0.4
				c-0.4,0.7-1,1.2-1.4,1.9c-0.7,1.2-1.1,2.5-1.3,3.9c-0.1,0-0.1,0-0.1-0.1c-0.1-0.1-0.1-0.3-0.1-0.4c-0.6-2.3-1.8-4.2-3.6-5.7
				c-1.1-0.9-2.4-1.5-4-1.4C100.8,57.9,100.3,58.3,99.7,58.4z"/>
			<path d="M100.7,78.5c0.1-0.7,0.6-1.1,0.9-1.6c0.4-0.7,0.9-1.2,1.1-2c0.4-0.6,0.7-1.3,1.2-1.8c-0.1,1-0.6,1.8-0.8,2.7
				c-0.1,0.6-0.3,1.1-0.2,1.7C102.2,77.9,101.4,78.2,100.7,78.5z"/>
			<path d="M73,81.2c-1.5,0-3-0.2-4.5-0.7c-1.7-0.5-3.2-1.2-4.6-2.3c-0.1-0.1-0.3-0.3-0.4-0.4c0.6,0.2,1.1,0.7,1.6,1
				c2.3,1.3,4.8,2,7.4,2C72.7,80.9,73.1,80.8,73,81.2z"/>
			<path d="M63.5,77.8c-0.2,0-0.3-0.2-0.4-0.3C63.3,77.5,63.5,77.6,63.5,77.8z"/>
			<path d="M108.4,20.8c-0.4,3-1.9,5.3-4.1,7.2c-2.8,2.4-6.1,4.1-9.4,5.6c-4.6,2-9.3,3.6-14,5.3c-3.5,1.3-7.1,2.6-10.5,4.3
				c-2.9,1.4-5.7,3-8.1,5.3c-1.9,1.8-3.2,3.9-3.7,6.7c-0.1-2.8,0.9-5,2.5-7c2-2.5,4.6-4.2,7.3-5.7c3.2-1.8,6.5-3.2,9.9-4.6
				c1.7-0.7,3.4-1.3,5.1-2c5.3-2.1,10.7-4,15.7-6.6c2.6-1.3,5-2.9,7-5C107.1,23.4,107.9,22.2,108.4,20.8z"/>
			<path d="M118.9,66c0.2-1.5,0.1-2.9-0.4-4.4c-0.8-2.3-3-3.4-5.3-2.6c-0.2,0.1-0.4,0.1-0.7,0.1c1.4-1.3,3.6-1.6,5.2,0.1
				c1.6,1.6,1.8,3.5,1.4,5.5C119.1,65.2,119,65.6,118.9,66z"/>
			<path d="M100,77.6c0,0-0.1,0.1-0.1,0C99.8,77.5,99.9,77.5,100,77.6C99.9,77.5,100,77.5,100,77.6z"/>
		</g>
		<path class="st1" d="M124.8,117.8c0,0.2,0,0.4-0.1,0.5c-1.6,2.6-3.4,5.1-5.4,7.4c-2,2.3-4.1,4.6-6.3,6.6
			c-3.5,3.2-7.3,6.1-11.5,8.3c-2.7,1.5-5.6,2.7-8.6,3.3c-3.3,0.7-6.6,0.8-9.7-0.5c-2.2-0.9-4-2.5-5.3-4.5c-2.1-3-3.4-6.3-4.5-9.7
			c-0.8-2.5-1.3-5.1-1.6-7.7c-0.6-4.1-0.6-8.2-0.4-12.3c0.1-3,0.4-6,1-9c0.4-1.9,0.7-3.7,1.2-5.6c0.6-2.2,1.3-4.3,2.4-6.3
			c0.1-0.3,0.3-0.5,0.6-0.6c0.1,0.1,0.2,0.1,0.2,0.2c0.7,1.5,1.6,2.9,2.5,4.2c2.2,3.2,4.9,6,8.4,7.8c1.2,0.6,2.4,1.3,3.8,1.3
			c4.7,0,9-1.5,13-4.1c4.5-3,8.1-6.9,11-11.4c0.6-0.9,0.4-0.9,1.4-0.4c6.3,3.3,9.8,8.7,10.5,15.7c0.6,5.8-1.4,11-5,15.5
			c-2.2,2.7-4.8,4.9-7.7,6.8c-0.2,0.1-0.4,0.1-0.3,0.4c0.2,0,0.4-0.1,0.5-0.2c2.6-1,5-2.4,7.3-3.9
			C122.9,119.2,123.8,118.5,124.8,117.8z"/>
		<path class="st1" d="M61.8,80.6c-1-0.9-1.9-1.9-2.7-3c-2.5-3.1-3.9-6.6-4.4-10.5c-0.4-3-0.6-5.9-0.4-8.9c0.2-3.7,0.9-7.4,1.9-11
			c1.2-4.2,2.9-8.2,5.1-12c1.8-3.1,3.9-6,6.3-8.8c2.9-3.4,6.3-6.3,10-8.6c4.1-2.6,8.6-4.4,13.5-5.4c2.3-0.4,4.6-0.8,7-0.7
			c2.4,0.1,4.8,0.5,7,1.5c1.4,0.6,2.7,1.3,3.7,2.5c1.4,1.6,1.8,3.5,1.3,5.5c-0.7,3.2-2.5,5.8-4.7,8.1c-2.6,2.7-5.9,4.5-9.3,6.1
			c-4.8,2.2-9.8,3.7-14.7,5.5c-1.1,0.4-2.2,0.9-3.2,1.3c-1.7,0.6-3.3,1.5-4.9,2.4c-2.3,1.4-4.6,2.9-6.6,4.9
			c-1.8,1.7-3.4,3.6-4.7,5.8c-2.2,3.7-3.4,7.6-3.1,11.9c0.2,2.7,1,5.3,2.4,7.6c0.6,1,1.4,2,2.3,2.8c0.1,0.2,0.2,0.3,0.4,0.3l0,0
			c0,0,0,0,0,0c0.1,0.1,0.2,0.3,0.4,0.4c1.4,1.1,2.9,1.8,4.6,2.3c1.5,0.4,3,0.6,4.5,0.7c0.1,0.1,0.1,0.2,0.2,0.4c-2,0.4-4,0.5-6,0.4
			c-1.8-0.1-3.5-0.5-5.2-1.2C62.2,80.6,62,80.6,61.8,80.6z M108.8,20.8c-0.5,1.4-1.3,2.5-2.3,3.6c-2,2.1-4.5,3.6-7,5
			C94.4,32.1,89,33.9,83.7,36c-1.7,0.7-3.4,1.3-5.1,2c-3.4,1.4-6.7,2.8-9.9,4.6c-2.7,1.5-5.3,3.3-7.3,5.7c-1.6,2-2.6,4.2-2.5,7
			c0.5-2.8,1.8-4.9,3.7-6.7c2.4-2.3,5.2-3.9,8.1-5.3c3.4-1.6,6.9-3,10.5-4.3c4.7-1.7,9.4-3.3,14-5.3c3.4-1.5,6.6-3.1,9.4-5.6
			C106.8,26.1,108.4,23.8,108.8,20.8z"/>
		<path class="st1" d="M100.1,58.4c0.6-0.1,1.1-0.5,1.7-0.5c1.5-0.1,2.8,0.5,4,1.4c1.8,1.5,3,3.4,3.6,5.7c0,0.1,0.1,0.3,0.1,0.4
			c0,0,0.1,0,0.1,0.1c0.2-1.4,0.6-2.7,1.3-3.9c0.4-0.7,0.9-1.2,1.4-1.9c0.1-0.2,0.6-0.1,0.6-0.4c0.2,0,0.4-0.1,0.7-0.1
			c2.3-0.8,4.5,0.3,5.3,2.6c0.5,1.4,0.6,2.9,0.4,4.4c-1.1,3.3-3.3,5.7-6.4,7.3c-3.1,1.6-6.4,2.8-9.6,4.2c-0.1-0.6,0.1-1.1,0.2-1.7
			c0.2-0.9,0.7-1.8,0.8-2.7c0.7-1.6,1.2-3.2,0.9-5c-0.4-2.2-1.6-3.9-3-5.5c-0.7-0.8-1.5-1.6-2.3-2.3c0.1-0.6,0.2-1.1,0.4-1.7
			C100.2,58.5,100.1,58.5,100.1,58.4z"/>
		<path class="st1" d="M101.1,78.5c-1.4,0.7-2.8,1.5-4.1,2.5c-1.9,1.5-3.3,3.4-3.9,5.8c0,0.1-0.1,0.1-0.1,0.3
			c-0.6-2.1-0.9-4.2-1.2-6.3c-0.3-1.8-0.6-3.7-0.8-5.5c-0.3-2.6-0.7-5.1-1.2-7.7c0.4-0.6,0.7-1.2,1.1-1.8c1.4-2,3.3-3.2,5.7-3.4
			c0.1,0,0.3,0,0.4-0.1c1.6,2.1,3.1,4.2,4,6.7c0.9,2.7,0.7,5.3-0.5,7.8c-0.1,0.2-0.2,0.3-0.2,0.5c-0.1,0-0.1,0-0.1,0.1
			c0,0,0.1,0,0.1,0c0.8-0.7,1.5-1.4,2.2-2.2c0.1-0.2,0.3-0.4,0.5-0.5c-0.2,0.8-0.7,1.4-1.1,2C101.7,77.5,101.2,77.9,101.1,78.5z"/>
	</g>
</g>
</svg>
