<?xml version="1.0" encoding="utf-8"?>
<!-- Generator: Adobe Illustrator 23.0.1, SVG Export Plug-In . SVG Version: 6.00 Build 0)  -->
<svg version="1.1" id="Calque_1" xmlns="http://www.w3.org/2000/svg" xmlns:xlink="http://www.w3.org/1999/xlink" x="0px" y="0px"
	 viewBox="0 0 512 512" style="enable-background:new 0 0 512 512;" xml:space="preserve">
<style type="text/css">
	.st0{opacity:0.15;}
	.st1{fill:#F6ADAE;}
</style>
<g class="st0">
	<g>
		<path d="M369,401c-3.2,2.3-6.3,4.7-9.5,6.9c-7.7,5.2-15.7,9.8-24.4,13.1c-0.6,0.2-1.1,0.8-1.8,0.7c-0.2-1,0.6-1.1,1.2-1.5
			c9.7-6.3,18.5-13.7,25.7-22.8c12.1-15.2,18.5-32.5,16.6-52c-2.3-23.6-13.9-41.4-35.1-52.6c-3.2-1.7-2.5-1.9-4.5,1.2
			c-9.9,15.1-21.7,28.3-36.9,38.2c-13.2,8.6-27.6,13.6-43.5,13.7c-4.5,0-8.6-2.2-12.6-4.3c-11.9-6.1-20.8-15.4-28.3-26.3
			c-3.1-4.5-6.1-9.2-8.4-14.2c-0.1-0.2-0.4-0.3-0.6-0.5c-2-4.3-3.9-8.6-5.9-12.9c-1.3-2.7-2-5.6-3.6-8.2c-0.2-0.4-0.1-0.9-0.5-1.2
			c0.3-1.5-0.8-1.2-1.5-1.2c-8.9-0.1-17.1-2.4-24.8-6.8c-1.9-1.1-3.4-2.6-5.4-3.4l0.1,0.1l0.1-0.1c-0.1-0.8-0.7-1-1.4-1.1
			c-3.1-2.7-5.7-6-7.8-9.4c-4.8-7.8-7.3-16.5-8-25.6c-1-14.4,3-27.6,10.4-39.9c4.3-7.2,9.8-13.5,15.8-19.3
			c6.6-6.4,14.1-11.6,22-16.3c5.2-3.1,10.6-5.8,16.4-8c3.6-1.4,7.2-3.1,10.9-4.3c16.6-5.8,33.4-11.1,49.4-18.4
			c11.4-5.2,22.2-11.3,31.1-20.3c7.5-7.7,13.4-16.4,15.8-27.1c1.6-6.9,0.1-13.1-4.5-18.5c-3.4-4-7.7-6.4-12.4-8.5
			c-7.5-3.3-15.3-4.8-23.5-5c-7.9-0.2-15.6,0.9-23.4,2.4c-16.2,3.2-31.3,9.2-45.1,18c-12.5,7.9-23.7,17.6-33.5,28.9
			c-7.9,9.1-15,18.9-21,29.3c-7.3,12.8-13,26.2-17.1,40.4c-3.5,12-5.6,24.2-6.4,36.7c-0.6,10.1-0.1,20,1.3,30
			c1.8,13.1,6.6,24.9,14.9,35.3c2.8,3.5,5.9,6.8,9.1,10c2.5,3,5.6,5.4,8.5,8c5.8,5.2,11.8,10.3,16.3,16.9c6.7,9.9,5.2,25.3-5,32.4
			c-7.6,5.3-15.9,7.1-24.7,2.9c-4.6-2.2-7-6.7-6.7-12c2.4,6.6,7.9,7.8,13.8,8.3c2.2,0.2,4.5-0.1,6.8-0.6c5.9-1.4,8.9-5.2,10-11
			c1.4-7.5-0.9-13.8-6-19.3s-11-10.1-16.6-14.9c-9.3-7.9-17.8-16.5-24.2-26.9c-3.8-6.1-6.8-12.5-9.2-19.3
			c-6.3-18.3-7.3-37.1-5.5-56.1c1.1-12,3.7-23.8,7.2-35.4c5.8-19.1,14.3-37.1,25.1-53.9c7.8-12.1,16.7-23.2,26.9-33.4
			c9.8-9.7,20.5-18.2,32.4-25.1c14.1-8.1,29.1-13.6,45.5-15.1c9.9-0.9,19.7-0.6,29.3,2c10.8,2.9,20,8.3,27.9,16.4
			c3.6,3.7,7,7.4,9.6,11.8c5.2,8.6,6.7,17.9,5.8,27.8c-0.5,4.7-1.7,9.2-3.2,13.6c-0.2,0.6-0.5,1.3-0.5,2c0.3,10.9-2.4,21.2-6.6,31.1
			c-5,11.6-11.8,22-21.6,30.1c-5.2,4.3-10.9,7.4-17.7,8.3c-10.4,1.3-18.6-3.1-25.6-10.4c-1.1-1.1-1.9-1.3-3.1-0.5
			c-0.4,0.3-0.6,0.6-0.7,1.1c-1,6.5,0.5,12.4,3.7,18c4,6.9,9.6,12.4,15.5,17.6c6.7,6,13.5,11.7,20.3,17.6c2.9,2.3,5.3,5,7.7,7.7
			c4.8,5.4,8.7,11.1,10,18.4c1.1,6-0.5,11.4-3,16.7c-1.7,1.8-2.6,4.1-4.1,6.1c-0.7,0.3-1.1,1-1.6,1.6c-2.3,2.6-4.6,5.2-7.4,7.4
			c-0.1-0.1-0.2-0.2-0.2-0.2c0-0.7,0.4-1.1,0.7-1.7c4-8.5,4.6-17.3,1.6-26.3c-2.9-8.4-7.9-15.7-13.4-22.5c-4.9-6-9.8-11.9-14.7-17.9
			c-4.6-5.6-9-11.3-12.3-17.8c-4.1-8-6.1-16.2-2.9-25.5c-3.8,1.4-7.1,2.8-10.5,4c-10,3.6-19.8,7.7-29.1,13.1c-1.7,1-3.2,2-4.1,3.9
			c-3.4,6.4-6.9,12.7-9.1,19.6c-3.2,9.6-3.7,19.3-2,29.2c0.5,2.9,1,5.8,1.9,8.7c0.1,0.2-0.1,0.8,0.5,0.5c-0.1,0.8-0.1,1.5,0.2,2.2
			c2,7.5,4.3,14.9,6.7,22.3c1.5,4.6,1.6,4.4,6.3,3.4c13.5-3,19.6-16.6,18.2-25.4c-1.4-8.6-7.6-14.4-15.7-13.8c-5,0.4-9,3-12.2,6.6
			c-1.3,1.5-2.4,3.2-3.6,4.8c0.5-5.7,3.8-9.6,8.1-12.9c7.8-6,18.5-6.1,25.8,0c7.1,5.9,10.4,13.7,9.4,22.9c-1,9.8-5.1,18.1-12.8,24.4
			c-4.5,3.7-9.8,6.2-15.4,7.7c-1.7,0.5-1.5,1.1-1,2.2c5.9,14.1,12.5,27.9,22.4,39.7c6.4,7.7,13.8,14.1,23.8,16.6
			c7.8,2,15.6,1.3,23.2-1.1c7.8-2.5,14.9-6.5,21.4-11.5c18.1-13.7,31.5-31.5,42.8-50.9c6-10.4,11.2-21.1,15.1-32.5
			c3-8.7,5.5-17.6,4.8-27c-0.1-1.2-0.3-2.3-0.5-4.1c2,3.2,2.4,6.2,2.6,9.3c0.8,11.6-1.8,22.7-5.2,33.7c-3.1,10.2-7.3,20-12.4,29.7
			c2.8,0.8,5.6,1.2,8.3,2.2c10.6,3.6,19.5,9.7,26.7,18.1c12.9,15.1,18.6,32.7,16.4,52.5c-1.5,13-6.8,24.6-14.8,34.9
			C378.3,392.2,373.6,396.5,369,401z M188.5,184.2c-2.7,1.3-4.7,3.2-6.7,5.2c-9.1,9-16.4,19.1-18.9,32c-2.9,14.9,4.2,31.8,19.9,37.9
			c2.6,1,5.2,1.8,8.2,2.2c-3-10-5.8-19.8-7.9-29.7c-2.9-13.9-3.1-27.8,2.5-41.2C186.6,188.4,187.6,186.3,188.5,184.2z M308.4,117.2
			c-16.3,17.6-37.6,26.7-59.1,35.6c1.4,1.5,3,2.5,4.6,3.5c5.6,3.4,11.6,4.9,18.2,3.2c5.6-1.4,10.1-4.6,14.2-8.4
			c8.9-8.4,15-18.7,20.5-29.5C307.5,120.3,308.5,119,308.4,117.2z"/>
		<path d="M286.3,201.9c7.9-12.1,27.2-8.8,32.4,7.6c0.7-3.6,1.7-6.8,3.3-9.8c3.9-7,11.4-11,19.4-10.4c10.1,0.8,16.9,8.7,17.3,18.5
			c0.2,6.9-1.9,13.3-4.6,19.5c-3.5,8.2-9.4,14.5-15.9,20.3c-10.9,9.8-23,18-34.8,26.6c-10.3,7.5-20.7,14.9-29.4,24.4
			c-3.5,3.8-6.6,7.9-8.5,12.8c-0.9,2.2-1.3,4.5-1.3,7.4c-1.7-2.5-2.7-4.8-3.8-7.1c-7.6-15.8-11.8-32.7-14.4-49.9
			c-1.8-11.8-2.8-23.7-4.2-35.5c-0.9-7.3-2.3-14.5-6.3-21c-5-8-12.1-13.4-20.7-16.9c-0.6-0.3-1.3-0.6-1.9-0.8
			c-0.6-0.2-1.2-0.4-1.8-0.8c8-0.3,15.1,2.3,21.3,7.3c6.6,5.3,10.7,12.5,13.8,20.3c2.4,6.1,4.1,12.4,5.6,18.7
			c1.7,8.5,3.2,17.1,4.1,25.8c0.7,6.2,1.6,12.3,2.5,18.4c1.1,6.9,2,13.9,4,21c0.3-0.6,0.4-0.8,0.5-1c2-8,6.5-14.4,12.9-19.6
			c4.2-3.4,8.9-6,13.6-8.4c2.4-1.2,5-2,7.4-3.5c10.8-4.6,21.8-8.6,32.3-14c10.4-5.4,17.7-13.2,21.3-24.4c0.3-1.4,0.7-2.8,1-4.2
			c1.2-6.9,0.4-13.2-4.8-18.5c-5.4-5.5-12.5-4.6-17.3-0.2c0,1.3-1.5,0.7-2,1.5c-1.4,2.2-3.2,4.1-4.5,6.4c-2.3,4-3.8,8.3-4.4,13
			c-0.3-0.1-0.5-0.1-0.5-0.2c-0.2-0.4-0.3-0.9-0.5-1.3c-2.1-7.6-6-14-12.1-19c-3.8-3.1-8.1-5.2-13.3-4.7
			C290,200.3,288.3,201.6,286.3,201.9z"/>
		<path d="M289.5,269.4c0.3-2.2,2.1-3.6,3.1-5.5c1.2-2.2,3-4.2,3.5-6.8c1.5-1.9,2.4-4.3,4.1-6.1c-0.3,3.2-1.9,6-2.6,9.1
			c-0.5,1.9-1.1,3.7-0.7,5.7C294.6,267.3,291.9,268.2,289.5,269.4z"/>
		<path d="M196.6,278.3c-5.1-0.1-10.2-0.8-15.1-2.2c-5.6-1.6-10.8-4.2-15.4-7.8c-0.5-0.4-0.8-0.9-1.3-1.3c2,0.8,3.6,2.3,5.4,3.4
			c7.7,4.4,15.9,6.7,24.8,6.8C195.8,277.2,196.9,276.9,196.6,278.3z"/>
		<path d="M165,267c-0.7,0-1.1-0.5-1.4-1.1C164.3,266,164.9,266.2,165,267z"/>
		<path d="M315.4,76c-1.2,10-6.5,17.6-13.8,24c-9.3,8.2-20.3,13.7-31.5,18.7c-15.3,6.8-31.2,12.1-46.9,17.9
			c-11.9,4.4-23.8,8.8-35.2,14.4c-9.8,4.7-19.3,10.2-27.2,17.9c-6.2,6.1-10.8,13.2-12.4,22.5c-0.4-9.3,2.9-16.7,8.2-23.3
			c6.7-8.2,15.3-13.9,24.5-19.1c10.6-6,21.9-10.8,33.2-15.4c5.7-2.3,11.4-4.4,17.2-6.6c17.8-6.9,35.8-13.3,52.7-22.2
			c8.6-4.5,16.8-9.6,23.5-16.7C310.9,84.4,313.7,80.5,315.4,76z"/>
		<path d="M350.5,227.4c0.6-5,0.4-9.9-1.3-14.7c-2.7-7.7-9.9-11.3-17.7-8.7c-0.7,0.2-1.4,0.4-2.2,0.4c4.8-4.4,11.9-5.3,17.3,0.2
			c5.2,5.3,6,11.6,4.8,18.5C351.2,224.7,350.8,226,350.5,227.4z"/>
		<path d="M287.2,266.1c-0.2,0.1-0.4,0.2-0.4,0.2c-0.1-0.2,0-0.3,0.2-0.4C287.1,265.9,287.1,266,287.2,266.1z"/>
	</g>
	<path class="st1" d="M370.3,401c0.1,0.6-0.1,1.2-0.4,1.8c-5.5,8.6-11.5,16.9-18.1,24.8s-13.7,15.3-21.3,22.2
		c-11.8,10.8-24.6,20.3-38.7,28c-9.1,5-18.6,8.9-28.8,11.2c-11,2.4-22,2.7-32.7-1.7c-7.5-3.1-13.3-8.3-17.9-15
		c-6.9-10-11.5-21-14.9-32.5c-2.5-8.4-4.2-17-5.4-25.8c-1.9-13.7-1.9-27.5-1.4-41.3c0.4-10.1,1.5-20.1,3.4-30.1
		c1.2-6.3,2.3-12.6,4-18.7c2-7.3,4.2-14.5,7.9-21.2c0.5-0.8,1-1.7,1.9-2.1c0.2,0.2,0.5,0.3,0.6,0.5c2.4,5,5.3,9.6,8.4,14.2
		c7.5,10.9,16.4,20.2,28.3,26.3c4,2,8.1,4.3,12.6,4.3c15.9,0,30.3-5.1,43.5-13.7c15.2-9.9,27-23.2,36.9-38.2c2-3.1,1.3-2.9,4.5-1.2
		c21.2,11.2,32.7,29.1,35.1,52.6c1.9,19.5-4.6,36.7-16.6,52c-7.2,9.1-16,16.5-25.7,22.8c-0.5,0.3-1.4,0.5-1.2,1.5
		c0.7,0.1,1.2-0.5,1.8-0.7c8.7-3.3,16.8-7.9,24.4-13.1C364,405.7,367.2,403.3,370.3,401z"/>
	<path class="st1" d="M159.2,276.3c-3.2-3.2-6.3-6.5-9.1-10c-8.3-10.4-13.1-22.2-14.9-35.3c-1.4-10-1.9-19.9-1.3-30
		c0.8-12.5,2.9-24.7,6.4-36.7c4.1-14.1,9.8-27.6,17.1-40.4c6-10.5,13-20.2,21-29.3c9.8-11.3,21-21,33.5-28.9
		c13.9-8.8,28.9-14.8,45.1-18c7.7-1.5,15.5-2.7,23.4-2.4c8.1,0.2,16,1.8,23.5,5c4.7,2,9,4.5,12.4,8.5c4.6,5.5,6,11.6,4.5,18.5
		c-2.4,10.7-8.3,19.4-15.8,27.1c-8.8,9.1-19.7,15.1-31.1,20.3c-16,7.3-32.8,12.5-49.4,18.4c-3.7,1.3-7.2,3-10.9,4.3
		c-5.7,2.2-11.1,4.9-16.4,8c-7.9,4.7-15.4,9.9-22,16.3c-6,5.8-11.5,12.1-15.8,19.3c-7.3,12.3-11.4,25.4-10.4,39.9
		c0.7,9.1,3.2,17.8,8,25.6c2.1,3.5,4.7,6.7,7.8,9.4c0.3,0.6,0.7,1.1,1.4,1.1l-0.1,0.1L166,267c0.4,0.4,0.8,1,1.3,1.3
		c4.6,3.6,9.8,6.1,15.4,7.8c4.9,1.4,10,2.1,15.1,2.2c0.4,0.3,0.4,0.8,0.5,1.2c-6.6,1.4-13.4,1.6-20.1,1.2c-6-0.4-11.8-1.6-17.3-4.2
		C160.4,276.3,159.8,276.4,159.2,276.3z M316.6,76c-1.7,4.6-4.4,8.5-7.8,12c-6.7,7.1-14.9,12.2-23.5,16.7
		c-16.9,8.9-35,15.2-52.7,22.2c-5.7,2.2-11.5,4.3-17.2,6.6c-11.3,4.6-22.5,9.4-33.2,15.4c-9.1,5.2-17.8,10.9-24.5,19.1
		c-5.4,6.6-8.6,14-8.2,23.3c1.6-9.3,6.2-16.4,12.4-22.5c7.9-7.7,17.3-13.1,27.2-17.9c11.4-5.5,23.3-10,35.2-14.4
		c15.7-5.8,31.6-11.1,46.9-17.9c11.2-5,22.2-10.5,31.5-18.7C310.1,93.6,315.4,86,316.6,76z"/>
	<path class="st1" d="M287.6,201.9c2-0.3,3.7-1.6,5.8-1.8c5.2-0.5,9.4,1.6,13.3,4.7c6.2,4.9,10,11.4,12.1,19
		c0.1,0.5,0.3,0.9,0.5,1.3c0,0.1,0.2,0.1,0.5,0.2c0.6-4.6,2.1-8.9,4.4-13c1.3-2.3,3.1-4.2,4.5-6.4c0.5-0.7,1.9-0.2,2-1.5
		c0.8,0,1.5-0.2,2.2-0.4c7.8-2.6,15,1,17.7,8.7c1.7,4.8,1.9,9.7,1.3,14.7c-3.6,11.2-10.9,19-21.3,24.4c-10.5,5.4-21.5,9.4-32.3,14
		c-0.4-2,0.3-3.8,0.7-5.7c0.7-3.1,2.3-5.9,2.6-9.1c2.4-5.3,4.1-10.7,3-16.7c-1.3-7.2-5.3-13-10-18.4c-2.4-2.7-4.9-5.4-7.7-7.7
		c0.4-1.9,0.8-3.7,1.3-5.6C288.1,202.2,287.5,202.3,287.6,201.9z"/>
	<path class="st1" d="M290.8,269.4c-4.8,2.5-9.4,5.1-13.6,8.4c-6.4,5.1-10.9,11.5-12.9,19.6c-0.1,0.2-0.2,0.5-0.5,1
		c-1.9-7.1-2.9-14.1-4-21c-0.9-6.1-1.9-12.2-2.5-18.4c-0.9-8.7-2.4-17.2-4.1-25.8c1.3-1.9,2.2-4.1,3.5-6c4.7-6.7,11-10.6,19.1-11.4
		c0.5,0,1,0,1.3-0.4c5.5,6.9,10.5,14.1,13.4,22.5c3.1,9,2.5,17.7-1.6,26.3c-0.3,0.5-0.8,1-0.7,1.7c-0.2,0-0.4,0.2-0.2,0.4
		c0,0,0.3-0.1,0.4-0.2c2.7-2.2,5.1-4.7,7.4-7.4c0.5-0.6,0.8-1.2,1.6-1.6c-0.5,2.6-2.3,4.5-3.5,6.8
		C292.9,265.8,291.1,267.2,290.8,269.4z"/>
</g>
</svg>
