<svg xmlns="http://www.w3.org/2000/svg" viewBox="0 0 22.93 38"><defs><style>.cls-1{fill:#f066a6;opacity:0.87;}</style></defs><title>Fichier 4</title><g id="Calque_2" data-name="Calque 2"><g id="Calque_1-2" data-name="Calque 1"><path d="M20.62,30.74l-.77.56a9.92,9.92,0,0,1-2,1.06c-.05,0-.09.07-.14.06s.05-.09.09-.12a8.72,8.72,0,0,0,2.08-1.85,5.72,5.72,0,0,0,1.34-4.21A5.11,5.11,0,0,0,18.4,22c-.26-.14-.2-.15-.37.09a10.28,10.28,0,0,1-3,3.1,6.35,6.35,0,0,1-3.52,1.11,2.22,2.22,0,0,1-1-.35A6.27,6.27,0,0,1,8.2,23.8a8.17,8.17,0,0,1-.68-1.14.1.1,0,0,0,0,0L7,21.57a3.93,3.93,0,0,0-.3-.66s0-.08,0-.1-.06-.1-.12-.1a4.06,4.06,0,0,1-2-.54,3.29,3.29,0,0,0-.44-.28h0c0-.07-.06-.08-.11-.08A3.54,3.54,0,0,1,3.35,19,4.46,4.46,0,0,1,2.7,17a5.43,5.43,0,0,1,.84-3.23,8,8,0,0,1,1.27-1.56,9.89,9.89,0,0,1,1.78-1.32,9.09,9.09,0,0,1,1.33-.65c.29-.11.58-.25.88-.35,1.34-.48,2.7-.9,4-1.49a7.93,7.93,0,0,0,2.51-1.65A4.62,4.62,0,0,0,16.6,4.53,1.64,1.64,0,0,0,16.23,3a2.68,2.68,0,0,0-1-.69,5.13,5.13,0,0,0-1.9-.4,8.6,8.6,0,0,0-1.89.19A10.64,10.64,0,0,0,7.79,3.59,12.17,12.17,0,0,0,5.07,5.93,15.28,15.28,0,0,0,3.37,8.3,15.13,15.13,0,0,0,2,11.57a13.58,13.58,0,0,0-.52,3A12.23,12.23,0,0,0,1.57,17a5.8,5.8,0,0,0,1.21,2.86,9.47,9.47,0,0,0,.74.81,7,7,0,0,0,.68.65,7.77,7.77,0,0,1,1.32,1.37,1.94,1.94,0,0,1-.4,2.62,1.89,1.89,0,0,1-2,.24,1,1,0,0,1-.54-1c.19.53.64.63,1.11.67a2.05,2.05,0,0,0,.55,0,1,1,0,0,0,.81-.89,1.73,1.73,0,0,0-.49-1.56,15.24,15.24,0,0,0-1.34-1.21,9.5,9.5,0,0,1-2-2.18,8,8,0,0,1-.74-1.56,10.81,10.81,0,0,1-.45-4.55,14,14,0,0,1,.59-2.86A17.21,17.21,0,0,1,2.68,6a16.11,16.11,0,0,1,2.18-2.7,12.52,12.52,0,0,1,2.62-2A9,9,0,0,1,11.17,0,6.52,6.52,0,0,1,13.54.2,4.9,4.9,0,0,1,15.8,1.52a5.55,5.55,0,0,1,.78,1,3.47,3.47,0,0,1,.47,2.25,5.18,5.18,0,0,1-.26,1.1.53.53,0,0,0,0,.16,6,6,0,0,1-.54,2.52A6.25,6.25,0,0,1,14.46,11a2.83,2.83,0,0,1-1.43.67A2.37,2.37,0,0,1,11,10.77a.18.18,0,0,0-.26,0,.11.11,0,0,0,0,.1,2.15,2.15,0,0,0,.3,1.46,6.28,6.28,0,0,0,1.25,1.42c.54.49,1.1.95,1.64,1.43a4.61,4.61,0,0,1,.63.62,3.1,3.1,0,0,1,.82,1.49A2.19,2.19,0,0,1,15,18.6a4.2,4.2,0,0,0-.33.49.5.5,0,0,0-.12.13,5.66,5.66,0,0,1-.6.6l0,0c0-.06,0-.09.06-.14a2.7,2.7,0,0,0,.13-2.12,6.17,6.17,0,0,0-1.09-1.83l-1.19-1.45a7.51,7.51,0,0,1-1-1.44,2.51,2.51,0,0,1-.24-2.06l-.85.32a15.56,15.56,0,0,0-2.36,1.05.78.78,0,0,0-.33.32A10.43,10.43,0,0,0,6.37,14a4.72,4.72,0,0,0-.16,2.36,5.44,5.44,0,0,0,.15.7s0,.07,0,0a.55.55,0,0,0,0,.18c.17.61.35,1.21.55,1.81.12.37.12.35.51.27A1.93,1.93,0,0,0,9,17.34a1.21,1.21,0,0,0-1.27-1.12,1.47,1.47,0,0,0-1,.54c-.11.12-.19.26-.29.39a1.48,1.48,0,0,1,.66-1,1.68,1.68,0,0,1,2.09,0A2,2,0,0,1,9.91,18a2.8,2.8,0,0,1-1,2,3.24,3.24,0,0,1-1.24.63c-.14,0-.12.09-.08.18A12,12,0,0,0,9.37,24a3.75,3.75,0,0,0,1.92,1.35,3.34,3.34,0,0,0,1.88-.1,5.54,5.54,0,0,0,1.73-.92,13.66,13.66,0,0,0,3.47-4.13,14.26,14.26,0,0,0,1.22-2.63A5.48,5.48,0,0,0,20,15.34c0-.09,0-.19,0-.33a1.59,1.59,0,0,1,.21.76,7.59,7.59,0,0,1-.42,2.72,13.94,13.94,0,0,1-1,2.41c.23.06.45.1.67.17a4.91,4.91,0,0,1,2.16,1.47,5.39,5.39,0,0,1,1.33,4.25,5.63,5.63,0,0,1-1.2,2.83A11.33,11.33,0,0,1,20.62,30.74ZM6,13.18a2.09,2.09,0,0,0-.54.43A5,5,0,0,0,3.93,16.2a2.7,2.7,0,0,0,1.61,3.06,2.45,2.45,0,0,0,.67.18c-.24-.81-.47-1.6-.64-2.41a5.42,5.42,0,0,1,.2-3.33C5.84,13.52,5.92,13.35,6,13.18Zm9.71-5.42a13,13,0,0,1-4.78,2.89,2,2,0,0,0,1.84.54,2.75,2.75,0,0,0,1.15-.68,8.61,8.61,0,0,0,1.66-2.39A.71.71,0,0,0,15.71,7.76Z"/><path d="M13.92,14.62a1.48,1.48,0,0,1,2.62.62,2.55,2.55,0,0,1,.27-.79,1.63,1.63,0,0,1,1.57-.84,1.5,1.5,0,0,1,1.4,1.5,3.63,3.63,0,0,1-.37,1.58,4.68,4.68,0,0,1-1.29,1.64,32.76,32.76,0,0,1-2.82,2.15,16.6,16.6,0,0,0-2.38,2,3.63,3.63,0,0,0-.69,1,1.61,1.61,0,0,0-.1.6,4.08,4.08,0,0,1-.31-.57,14.18,14.18,0,0,1-1.16-4c-.15-1-.23-1.92-.34-2.88a4.09,4.09,0,0,0-.51-1.7,3.52,3.52,0,0,0-1.68-1.37L8,13.47l-.14-.07A2.6,2.6,0,0,1,9.56,14a3.9,3.9,0,0,1,1.11,1.64,10.59,10.59,0,0,1,.46,1.52c.13.69.26,1.39.33,2.09,0,.5.13,1,.2,1.49a15,15,0,0,0,.33,1.7l0-.08a2.84,2.84,0,0,1,1-1.58,6.05,6.05,0,0,1,1.11-.69,4.53,4.53,0,0,0,.59-.28c.88-.37,1.77-.69,2.62-1.14a3.3,3.3,0,0,0,1.73-2c0-.12.06-.23.08-.34a1.62,1.62,0,0,0-.39-1.5,1,1,0,0,0-1.41,0c0,.11-.12.06-.16.12s-.26.33-.36.52a2.79,2.79,0,0,0-.36,1l0,0s0-.07,0-.11a2.91,2.91,0,0,0-1-1.54,1.5,1.5,0,0,0-1.07-.38C14.22,14.49,14.08,14.59,13.92,14.62Z"/><path d="M14.18,20.08c0-.18.17-.29.25-.44a1.91,1.91,0,0,0,.28-.55A4.2,4.2,0,0,1,15,18.6a4.79,4.79,0,0,1-.21.74,1,1,0,0,0-.06.46A4.53,4.53,0,0,1,14.18,20.08Z"/><path d="M6.65,20.81a4.62,4.62,0,0,1-1.22-.18A4,4,0,0,1,4.18,20l-.1-.11a3.29,3.29,0,0,1,.44.28,4.06,4.06,0,0,0,2,.54C6.59,20.71,6.68,20.69,6.65,20.81Z"/><path d="M4.09,19.89A.12.12,0,0,1,4,19.81C4,19.81,4.08,19.82,4.09,19.89Z"/><path d="M16.27,4.42a3.07,3.07,0,0,1-1.12,2A9.92,9.92,0,0,1,12.6,7.88c-1.24.55-2.53,1-3.8,1.45-1,.36-1.93.72-2.85,1.16a8.08,8.08,0,0,0-2.2,1.45,3.2,3.2,0,0,0-1,1.82,2.7,2.7,0,0,1,.66-1.89,6.87,6.87,0,0,1,2-1.54A23.36,23.36,0,0,1,8.08,9.08c.46-.19.93-.36,1.39-.54a41,41,0,0,0,4.27-1.8,6.85,6.85,0,0,0,1.9-1.35A2.71,2.71,0,0,0,16.27,4.42Z"/><path d="M19.12,16.69A2.66,2.66,0,0,0,19,15.5a1.09,1.09,0,0,0-1.44-.7.52.52,0,0,1-.18,0,1,1,0,0,1,1.41,0,1.62,1.62,0,0,1,.39,1.5C19.18,16.46,19.15,16.57,19.12,16.69Z"/><path d="M14,19.82h0s0,0,0,0Z"/><path class="cls-1" d="M20.72,30.74a.2.2,0,0,1,0,.15,18,18,0,0,1-1.47,2,18.29,18.29,0,0,1-1.72,1.8A15.54,15.54,0,0,1,14.37,37a8.93,8.93,0,0,1-2.33.9,4.29,4.29,0,0,1-2.65-.14,3.23,3.23,0,0,1-1.45-1.21,9.23,9.23,0,0,1-1.21-2.63,13.38,13.38,0,0,1-.44-2.09,19.64,19.64,0,0,1-.12-3.34A16.73,16.73,0,0,1,6.45,26c.1-.5.19-1,.33-1.51a7.5,7.5,0,0,1,.64-1.71.36.36,0,0,1,.15-.17.1.1,0,0,1,0,0,7.36,7.36,0,0,0,.69,1.14,6.24,6.24,0,0,0,2.29,2.13,2.22,2.22,0,0,0,1,.35,6.36,6.36,0,0,0,3.53-1.11,10.28,10.28,0,0,0,3-3.1c.16-.24.11-.23.37-.09a5.13,5.13,0,0,1,2.84,4.26A5.73,5.73,0,0,1,20,30.45a8.35,8.35,0,0,1-2.08,1.85s-.11,0-.09.12.1,0,.14-.06a9.66,9.66,0,0,0,2-1.06Z"/><path class="cls-1" d="M3.62,20.64a8,8,0,0,1-.73-.81A5.62,5.62,0,0,1,1.68,17a12.23,12.23,0,0,1-.11-2.42,14.2,14.2,0,0,1,.52-3A14.69,14.69,0,0,1,3.48,8.3a14.06,14.06,0,0,1,1.7-2.37A12.11,12.11,0,0,1,7.89,3.59a10.64,10.64,0,0,1,3.65-1.46,8.69,8.69,0,0,1,1.9-.19,5.22,5.22,0,0,1,1.9.4,2.85,2.85,0,0,1,1,.69,1.64,1.64,0,0,1,.36,1.5,4.6,4.6,0,0,1-1.28,2.19A8,8,0,0,1,12.9,8.37c-1.3.59-2.65,1-4,1.49-.29.1-.58.24-.88.35a9,9,0,0,0-1.32.65,9.23,9.23,0,0,0-1.78,1.32,7.66,7.66,0,0,0-1.28,1.56A5.5,5.5,0,0,0,2.8,17,4.58,4.58,0,0,0,3.45,19a3.54,3.54,0,0,0,.63.77s.06.08.12.08h0a.52.52,0,0,0,.1.11,3.78,3.78,0,0,0,1.25.63,4.5,4.5,0,0,0,1.22.18s0,.06,0,.1A5.94,5.94,0,0,1,5.17,21a4,4,0,0,1-1.4-.33A.8.8,0,0,0,3.62,20.64ZM16.38,4.42a2.85,2.85,0,0,1-.63,1,6.9,6.9,0,0,1-1.91,1.35,41,41,0,0,1-4.27,1.8c-.46.18-.93.35-1.39.54A22.47,22.47,0,0,0,5.5,10.33a6.61,6.61,0,0,0-2,1.54,2.71,2.71,0,0,0-.67,1.89,3.32,3.32,0,0,1,1-1.82,8.23,8.23,0,0,1,2.2-1.45c.93-.44,1.89-.8,2.85-1.16,1.27-.47,2.56-.9,3.8-1.45a10.15,10.15,0,0,0,2.56-1.51A3.07,3.07,0,0,0,16.38,4.42Z"/><path class="cls-1" d="M14,14.62c.16,0,.3-.13.47-.15a1.53,1.53,0,0,1,1.08.38,3,3,0,0,1,1,1.54.49.49,0,0,0,0,.11s0,0,0,0a3,3,0,0,1,.35-1c.11-.19.26-.34.37-.52s.15,0,.16-.12l.18,0a1.08,1.08,0,0,1,1.43.7,2.52,2.52,0,0,1,.1,1.19,3.29,3.29,0,0,1-1.72,2c-.85.45-1.75.77-2.62,1.14a1,1,0,0,1,.06-.46,6.25,6.25,0,0,0,.21-.74,2.18,2.18,0,0,0,.24-1.35,3.16,3.16,0,0,0-.81-1.49,5.26,5.26,0,0,0-.63-.62c0-.15.06-.31.1-.46S14,14.65,14,14.62Z"/><path class="cls-1" d="M14.28,20.08a6.33,6.33,0,0,0-1.1.69,2.85,2.85,0,0,0-1,1.58l0,.08a13,13,0,0,1-.32-1.7c-.08-.5-.15-1-.21-1.49a21.12,21.12,0,0,0-.33-2.09c.11-.15.18-.33.29-.48a2,2,0,0,1,1.55-.92s.08,0,.11,0a6.14,6.14,0,0,1,1.08,1.83,2.7,2.7,0,0,1-.13,2.12c0,.05-.06.08-.05.14s0,0,0,0h0a4.77,4.77,0,0,0,.59-.6.4.4,0,0,1,.13-.13,1.93,1.93,0,0,1-.29.55C14.45,19.79,14.31,19.9,14.28,20.08Z"/></g></g></svg>