<svg xmlns="http://www.w3.org/2000/svg" viewBox="0 0 296.66 491.67"><defs><style>.cls-1{fill:#f066a6;opacity:0.87;}</style></defs><title>Fichier 2</title><g id="Calque_2" data-name="Calque 2"><g id="Calque_1-2" data-name="Calque 1"><path d="M266.78,397.77c-3.32,2.41-6.58,4.89-10,7.19a125.75,125.75,0,0,1-25.6,13.75c-.62.24-1.11.83-1.88.74-.2-1.07.67-1.19,1.22-1.55A111,111,0,0,0,257.46,394c12.63-16,19.42-34,17.4-54.49-2.44-24.68-14.57-43.42-36.76-55.16-3.37-1.78-2.65-1.95-4.76,1.27-10.39,15.8-22.79,29.67-38.72,40.07-13.83,9-29,14.3-45.62,14.34-4.75,0-9-2.36-13.2-4.48C123.32,329.17,114,319.39,106.13,308a106.84,106.84,0,0,1-8.85-14.84c-.11-.23-.43-.36-.65-.53-2.06-4.51-4.09-9-6.21-13.53-1.33-2.83-2.09-5.92-3.81-8.58-.15-.44-.07-1-.52-1.29.36-1.55-.8-1.21-1.58-1.22a52.8,52.8,0,0,1-26-7.09c-1.95-1.11-3.58-2.73-5.7-3.55l.06.1.09-.08c-.11-.89-.76-1.06-1.49-1.13a43.84,43.84,0,0,1-8.18-9.88,59,59,0,0,1-8.37-26.79c-1.08-15.1,3.18-28.91,10.85-41.76a99.87,99.87,0,0,1,16.51-20.27,120.68,120.68,0,0,1,23-17.06,109.23,109.23,0,0,1,17.13-8.4c3.8-1.43,7.54-3.2,11.39-4.55,17.37-6.12,35-11.61,51.76-19.26,12-5.45,23.3-11.8,32.55-21.31,7.87-8.08,14-17.2,16.57-28.4a21.25,21.25,0,0,0-4.7-19.4c-3.52-4.17-8-6.72-12.94-8.86A65.71,65.71,0,0,0,172.51,25c-8.27-.25-16.39,1-24.49,2.56a137,137,0,0,0-47.28,18.82A159.33,159.33,0,0,0,65.62,76.7a190.37,190.37,0,0,0-39.9,73A179.85,179.85,0,0,0,19,188.2a157.82,157.82,0,0,0,1.35,31.41A74.13,74.13,0,0,0,36,256.6a127.47,127.47,0,0,0,9.53,10.46c2.62,3.16,5.85,5.68,8.88,8.41,6.11,5.49,12.37,10.82,17.07,17.71,7.07,10.34,5.48,26.51-5.21,34-8,5.55-16.67,7.44-25.92,3-4.79-2.29-7.39-7-7-12.57,2.48,6.94,8.32,8.17,14.42,8.7a22.48,22.48,0,0,0,7.09-.63c6.15-1.45,9.37-5.48,10.49-11.51,1.46-7.87-1-14.49-6.32-20.23s-11.49-10.54-17.42-15.6C31.89,270.05,23,261,16.21,250.12a101.3,101.3,0,0,1-9.6-20.26C0,210.7-1,191,.8,171a183.57,183.57,0,0,1,7.57-37A225.14,225.14,0,0,1,34.66,77.54a208.46,208.46,0,0,1,28.24-35A165.15,165.15,0,0,1,96.84,16.27C111.63,7.75,127.37,2.05,144.49.49c10.37-.95,20.61-.65,30.74,2.1a62.92,62.92,0,0,1,29.21,17.14,69.92,69.92,0,0,1,10.09,12.32c5.49,9,7.07,18.8,6,29.14a66.16,66.16,0,0,1-3.36,14.29,6.3,6.3,0,0,0-.52,2.08c.26,11.4-2.49,22.18-6.94,32.56-5.21,12.16-12.31,23-22.63,31.51-5.43,4.46-11.46,7.79-18.55,8.69-10.94,1.37-19.5-3.3-26.78-10.91-1.11-1.17-2-1.4-3.3-.54a1.56,1.56,0,0,0-.72,1.19A27.91,27.91,0,0,0,141.67,159c4.23,7.2,10.1,13,16.21,18.46,7,6.27,14.16,12.3,21.25,18.44a70.58,70.58,0,0,1,8.12,8.1c5,5.61,9.11,11.66,10.53,19.25,1.16,6.25-.57,11.92-3.14,17.48-1.8,1.85-2.74,4.3-4.27,6.34a5.46,5.46,0,0,0-1.63,1.65,58.73,58.73,0,0,1-7.71,7.74l-.25-.24c0-.71.47-1.19.74-1.76a35.28,35.28,0,0,0,1.64-27.53c-3-8.85-8.24-16.4-14-23.61l-15.42-18.72c-4.82-5.85-9.41-11.86-12.87-18.65-4.24-8.35-6.37-17-3.06-26.74-3.94,1.5-7.44,2.9-11,4.17A191.83,191.83,0,0,0,96.29,157a10,10,0,0,0-4.3,4.05c-3.52,6.7-7.19,13.32-9.58,20.54a61.68,61.68,0,0,0-2.09,30.59,68.4,68.4,0,0,0,2,9.09c.08.25-.06.84.56.49a5.5,5.5,0,0,0,.16,2.35q3.19,11.77,7,23.35c1.59,4.77,1.63,4.62,6.65,3.52,14.14-3.1,20.58-17.35,19.11-26.66-1.44-9.06-8-15.13-16.4-14.49-5.24.39-9.39,3.1-12.79,6.95-1.39,1.57-2.54,3.36-3.81,5.06.55-5.94,4-10,8.51-13.48,8.2-6.3,19.37-6.41,27.05,0,7.43,6.2,10.88,14.31,9.88,24-1,10.25-5.36,18.92-13.42,25.58A42.91,42.91,0,0,1,98.71,266c-1.74.48-1.55,1.17-1.06,2.34,6.2,14.8,13.11,29.22,23.52,41.62,6.73,8,14.47,14.75,24.93,17.44,8.2,2.11,16.34,1.35,24.34-1.18a73.68,73.68,0,0,0,22.38-12c19-14.41,33-33,44.85-53.36a188.3,188.3,0,0,0,15.81-34c3.13-9.16,5.75-18.46,5-28.32-.08-1.22-.27-2.43-.48-4.26a19.64,19.64,0,0,1,2.68,9.73c.79,12.18-1.93,23.81-5.44,35.31a181.66,181.66,0,0,1-13,31.12c3,.81,5.92,1.29,8.74,2.25a63.06,63.06,0,0,1,28,19c13.57,15.83,19.51,34.22,17.19,55-1.52,13.64-7.13,25.73-15.54,36.56C276.49,388.51,271.54,393.05,266.78,397.77ZM77.62,170.57a26.39,26.39,0,0,0-7,5.47c-9.5,9.45-17.19,20-19.83,33.51-3.06,15.66,4.38,33.29,20.88,39.71a33.62,33.62,0,0,0,8.62,2.27C77.21,241,74.24,230.8,72,220.37c-3.08-14.62-3.3-29.09,2.59-43.17C75.57,175,76.62,172.78,77.62,170.57Zm125.64-70.13c-17.06,18.41-39.4,28-61.9,37.35a22.33,22.33,0,0,0,4.77,3.66c5.9,3.6,12.14,5.12,19,3.33,5.85-1.52,10.6-4.8,14.9-8.83,9.37-8.76,15.73-19.64,21.47-30.93C202.26,103.6,203.36,102.28,203.26,100.44Z"/><path d="M180,189.17c8.31-12.65,28.5-9.18,34,8a35.33,35.33,0,0,1,3.47-10.25,21.17,21.17,0,0,1,20.37-10.86c10.6.85,17.75,9.13,18.12,19.39.26,7.25-2,13.91-4.81,20.45-3.69,8.57-9.89,15.18-16.69,21.27C223,247.4,210.35,256,198,265c-10.78,7.86-21.64,15.65-30.77,25.52A43.12,43.12,0,0,0,158.28,304a20.33,20.33,0,0,0-1.36,7.78,52.44,52.44,0,0,1-4-7.43C145,287.72,140.62,270.1,137.86,252c-1.88-12.36-2.9-24.81-4.38-37.21-.91-7.68-2.37-15.22-6.57-22-5.24-8.43-12.73-14-21.74-17.75-.67-.28-1.32-.59-2-.85a10.65,10.65,0,0,1-1.88-.78,32.91,32.91,0,0,1,22.37,7.61c7,5.61,11.17,13.11,14.44,21.23a134.34,134.34,0,0,1,5.9,19.63c1.74,9,3.31,17.93,4.26,27,.69,6.45,1.66,12.87,2.64,19.28a191.85,191.85,0,0,0,4.18,22.06,7.38,7.38,0,0,0,.5-1.06,37.19,37.19,0,0,1,13.56-20.51,84.47,84.47,0,0,1,14.29-8.83c2.55-1.28,5.29-2.15,7.72-3.69,11.31-4.81,22.89-9,33.85-14.68s18.6-13.84,22.37-25.6c.34-1.45.75-2.89,1-4.36,1.22-7.21.45-13.87-5-19.41-5.69-5.77-13.14-4.84-18.18-.22,0,1.37-1.56.77-2.06,1.55-1.47,2.3-3.39,4.28-4.74,6.68a37.74,37.74,0,0,0-4.6,13.6c-.28-.13-.48-.15-.52-.25a11.81,11.81,0,0,1-.5-1.41A37.47,37.47,0,0,0,200,192.19c-4-3.23-8.5-5.4-13.91-4.92C183.94,187.47,182.16,188.83,180,189.17Z"/><path d="M183.44,259.86c.34-2.33,2.18-3.8,3.22-5.73,1.27-2.35,3.18-4.37,3.71-7.11,1.53-2,2.47-4.49,4.27-6.34-.36,3.33-2,6.31-2.74,9.54-.48,2-1.14,3.89-.74,6C188.73,257.71,186,258.58,183.44,259.86Z"/><path d="M86.09,269.23a62.2,62.2,0,0,1-15.82-2.33,48,48,0,0,1-16.14-8.13,12.54,12.54,0,0,1-1.32-1.4c2.12.82,3.75,2.44,5.7,3.55a52.8,52.8,0,0,0,26,7.09C85.29,268,86.45,267.68,86.09,269.23Z"/><path d="M53,257.39c-.78,0-1.16-.54-1.49-1.13C52.2,256.33,52.85,256.5,53,257.39Z"/><path d="M210.53,57.18c-1.26,10.5-6.84,18.48-14.49,25.18-9.78,8.57-21.27,14.34-33,19.58-16.05,7.14-32.7,12.7-49.14,18.78-12.47,4.6-24.9,9.26-36.87,15-10.3,5-20.19,10.63-28.47,18.74-6.54,6.41-11.33,13.78-13,23.58-.41-9.77,3-17.53,8.64-24.45,7-8.6,16.08-14.61,25.62-20,11.15-6.33,22.93-11.29,34.75-16.15,5.94-2.45,12-4.63,18-7,18.61-7.27,37.49-13.93,55.24-23.24,9-4.71,17.56-10,24.63-17.47A36.28,36.28,0,0,0,210.53,57.18Z"/><path d="M247.38,215.89A33.16,33.16,0,0,0,246,200.52c-2.83-8.05-10.4-11.83-18.54-9.07a7.34,7.34,0,0,1-2.31.45c5-4.62,12.49-5.55,18.18.22,5.47,5.54,6.24,12.2,5,19.41C248.13,213,247.72,214.44,247.38,215.89Z"/><path d="M181,256.41a2.09,2.09,0,0,1-.47.16c-.15-.23,0-.35.22-.4Z"/><path class="cls-1" d="M268.13,397.77a2.62,2.62,0,0,1-.44,1.85,248.4,248.4,0,0,1-19,26,245.94,245.94,0,0,1-22.28,23.25,203.66,203.66,0,0,1-40.55,29.3,114.61,114.61,0,0,1-30.16,11.7c-11.53,2.53-23,2.81-34.22-1.81a42.39,42.39,0,0,1-18.79-15.67c-7.23-10.43-12-22-15.65-34.06a180.57,180.57,0,0,1-5.69-27c-2-14.38-2-28.82-1.51-43.23a205.29,205.29,0,0,1,3.58-31.51c1.25-6.57,2.43-13.16,4.23-19.58,2.12-7.61,4.42-15.21,8.3-22.19a4.44,4.44,0,0,1,2-2.19c.22.17.53.3.64.53A107.83,107.83,0,0,0,107.48,308c7.84,11.39,17.19,21.17,29.67,27.54,4.17,2.12,8.45,4.49,13.2,4.48,16.65,0,31.79-5.31,45.62-14.34,15.93-10.4,28.33-24.27,38.72-40.07,2.12-3.22,1.39-3.05,4.76-1.27,22.19,11.74,34.32,30.48,36.76,55.16,2,20.45-4.77,38.51-17.4,54.49a111,111,0,0,1-26.9,23.91c-.55.36-1.42.48-1.22,1.55.77.09,1.26-.5,1.88-.74A125.49,125.49,0,0,0,258.17,405C261.55,402.66,264.81,400.18,268.13,397.77Z"/><path class="cls-1" d="M46.87,267.06a125.82,125.82,0,0,1-9.54-10.46,74.31,74.31,0,0,1-15.61-37,157.07,157.07,0,0,1-1.34-31.41,178.62,178.62,0,0,1,6.7-38.47A190.19,190.19,0,0,1,67,76.7a159.33,159.33,0,0,1,35.12-30.28A137,137,0,0,1,149.37,27.6c8.1-1.58,16.22-2.81,24.49-2.56a65.67,65.67,0,0,1,24.57,5.28c4.9,2.14,9.42,4.69,12.95,8.86a21.27,21.27,0,0,1,4.69,19.4c-2.54,11.2-8.7,20.32-16.56,28.4-9.26,9.51-20.6,15.86-32.56,21.31-16.8,7.65-34.39,13.14-51.76,19.26-3.85,1.35-7.59,3.12-11.39,4.55a109.23,109.23,0,0,0-17.13,8.4,120.68,120.68,0,0,0-23,17.06,100.21,100.21,0,0,0-16.51,20.27c-7.67,12.85-11.93,26.66-10.85,41.76a59.11,59.11,0,0,0,8.37,26.79,43.84,43.84,0,0,0,8.18,9.88c.33.59.71,1.12,1.49,1.13l-.09.08-.06-.1a12.62,12.62,0,0,0,1.33,1.4,48,48,0,0,0,16.13,8.13,62.26,62.26,0,0,0,15.82,2.33c.45.32.37.85.53,1.29a76.35,76.35,0,0,1-21.06,1.24,51,51,0,0,1-18.15-4.37A7.34,7.34,0,0,0,46.87,267.06Zm165-209.88a36.4,36.4,0,0,1-8.14,12.59c-7.07,7.44-15.65,12.76-24.64,17.47-17.75,9.31-36.62,16-55.24,23.24-6,2.34-12,4.52-18,7-11.82,4.86-23.6,9.82-34.74,16.15C61.6,139,52.54,145,45.52,153.63c-5.63,6.92-9.05,14.68-8.64,24.45,1.65-9.8,6.44-17.17,13-23.58,8.27-8.11,18.16-13.77,28.46-18.74,12-5.78,24.4-10.44,36.87-15,16.45-6.08,33.09-11.64,49.14-18.78,11.78-5.24,23.27-11,33.06-19.58C205,75.66,210.62,67.68,211.88,57.18Z"/><path class="cls-1" d="M181.39,189.17c2.12-.34,3.9-1.7,6.09-1.9,5.41-.48,9.89,1.69,13.92,4.92a37.51,37.51,0,0,1,12.71,19.88,13.87,13.87,0,0,0,.5,1.41c0,.1.24.12.53.25a37.53,37.53,0,0,1,4.59-13.6c1.35-2.4,3.27-4.38,4.74-6.68.5-.78,2-.18,2.06-1.55a7.34,7.34,0,0,0,2.31-.45c8.14-2.76,15.71,1,18.54,9.07a33.16,33.16,0,0,1,1.35,15.37c-3.77,11.76-11.45,19.93-22.37,25.6s-22.53,9.87-33.85,14.68c-.4-2.06.26-4,.74-6,.77-3.23,2.38-6.21,2.74-9.55,2.57-5.55,4.3-11.22,3.14-17.47-1.41-7.59-5.51-13.64-10.53-19.25a70.58,70.58,0,0,0-8.12-8.1c.43-1.95.82-3.92,1.31-5.85C181.93,189.47,181.31,189.54,181.39,189.17Z"/><path class="cls-1" d="M184.8,259.86a84.16,84.16,0,0,0-14.3,8.83,37.24,37.24,0,0,0-13.56,20.51,7.38,7.38,0,0,1-.5,1.06,191.85,191.85,0,0,1-4.18-22.06c-1-6.41-1.95-12.83-2.63-19.28-1-9.08-2.53-18.06-4.27-27,1.41-2,2.31-4.25,3.71-6.26,4.91-7,11.5-11.09,20.06-11.91.49-.05,1,0,1.36-.47,5.79,7.21,11,14.76,14,23.61a35.32,35.32,0,0,1-1.63,27.53c-.27.57-.79,1.05-.74,1.76-.23.05-.37.17-.23.4a1.94,1.94,0,0,0,.47-.16,58.73,58.73,0,0,0,7.71-7.74,5.69,5.69,0,0,1,1.63-1.65c-.53,2.74-2.43,4.76-3.71,7.11C187,256.06,185.13,257.53,184.8,259.86Z"/></g></g></svg>