<?xml version="1.0" encoding="utf-8"?>
<!-- Generator: Adobe Illustrator 23.0.1, SVG Export Plug-In . SVG Version: 6.00 Build 0)  -->
<svg version="1.1" id="Calque_1" xmlns="http://www.w3.org/2000/svg" xmlns:xlink="http://www.w3.org/1999/xlink" x="0px" y="0px"
	 viewBox="0 0 512 538.5" style="enable-background:new 0 0 512 538.5;" xml:space="preserve">
<style type="text/css">
	.st0{fill:#FFFFFF;}
	.st1{fill:none;stroke:#000000;stroke-width:2;stroke-miterlimit:10;}
	.st2{opacity:0.87;fill:#F066A6;}
</style>
<g>
	<g>
		
			<image style="overflow:visible;opacity:0.71;" width="2159" height="2160" xlink:href="818E12D5.png"  transform="matrix(0.24 0 0 0.24 -0.3091 12.941)">
		</image>
		<g>
			<path class="st0" d="M483.6,510.2H28.4c-7.4,0-13.4-6-13.4-13.4V41.7c0-7.4,6-13.4,13.4-13.4h455.1c7.4,0,13.4,6,13.4,13.4v455.1
				C496.9,504.2,491,510.2,483.6,510.2z"/>
			<path class="st1" d="M483.6,510.2H28.4c-7.4,0-13.4-6-13.4-13.4V41.7c0-7.4,6-13.4,13.4-13.4h455.1c7.4,0,13.4,6,13.4,13.4v455.1
				C496.9,504.2,491,510.2,483.6,510.2z"/>
		</g>
	</g>
	<g>
		<path d="M59.4,492.7h-8.3l16.4-50.1h8.3l16,50.1h-7.7l-4.4-13.2l-2.2-8.3l-0.5-1.1v-0.5l-3.9-11.5c-0.3-1.1-0.5-2.1-0.8-3
			c-0.3-0.9-0.5-1.9-0.8-3c-0.3,1.1-0.6,2.2-0.9,3.2c-0.3,1-0.5,2-0.8,2.8l-3.9,13.2h9.4l1.7,6.1H63.8L59.4,492.7z"/>
		<path d="M105,442.5l29.3,50.3h-8.9l-6.1-11c-1.1-1.7-2.1-3.2-2.9-4.6c-0.8-1.4-1.5-2.6-2-3.7c-0.6,1.1-1.2,2.3-1.8,3.5
			c-0.6,1.2-1.5,2.8-2.6,4.8l-5.5,11h-8.8l14.4-25.4l-13.8-24.9H105z M116.6,458c0.3-0.8,0.5-1.4,0.8-1.9c0.3-0.5,0.6-1.1,0.9-2
			l6.6-11.6h8.8l-13.2,22.7L116.6,458z"/>
		<path d="M148,442.5l29.3,50.3h-8.9l-6.1-11c-1.1-1.7-2.1-3.2-2.9-4.6c-0.8-1.4-1.5-2.6-2-3.7c-0.6,1.1-1.2,2.3-1.8,3.5
			c-0.6,1.2-1.5,2.8-2.6,4.8l-5.5,11h-8.8l14.4-25.4l-13.8-24.9H148z M159.7,458c0.3-0.8,0.5-1.4,0.8-1.9c0.3-0.5,0.6-1.1,0.9-2
			l6.6-11.6h8.8l-13.2,22.7L159.7,458z"/>
		<path d="M208.9,442.5h7.5v28.8c0,3.3-0.4,6.3-1.2,9c-0.8,2.6-1.9,4.9-3.4,6.7c-1.5,1.8-3.3,3.2-5.5,4.2c-2.2,1-4.7,1.5-7.5,1.5
			c-3.7,0-6.7-0.7-9-2.2c-2.3-1.5-4-3.3-5.1-5.4c-1.2-2.2-2-4.5-2.3-7c-0.4-2.5-0.6-4.7-0.6-6.7v-28.8h7.5v28.8
			c0,4.8,0.9,8.4,2.6,10.8c1.7,2.4,4,3.6,7,3.6c2.1,0,3.9-0.4,5.2-1.3c1.3-0.8,2.3-1.9,3.1-3.3c0.7-1.4,1.2-2.9,1.5-4.6
			c0.2-1.7,0.4-3.4,0.4-5.2V442.5z"/>
		<path d="M268.6,467.6c-1.3-2.5-2.6-4.8-3.9-7c-1.3-2.1-2.3-4.2-3.1-6.1c0.3,2.5,0.4,5,0.5,7.6c0,2.6,0.1,5.5,0.1,8.7v21.9H255
			v-50.1h7.6l14.7,25.1c1.4,2,2.5,4,3.5,6c0.9,2.1,2,4,3.1,5.9l6.6,13.1h-7.1L268.6,467.6z M283.3,474.1v-10.3v-21.3h7.1v45.8
			L283.3,474.1z"/>
		<path d="M314.2,488.3c-2.5,2.9-6.1,4.4-11,4.4c-1,0-2.1-0.1-3.3-0.4c-1.2-0.2-2.2-0.5-3.1-0.7l-0.5-0.6l1.1-6.5l1.1,0.6
			c0.5,0.3,1.2,0.4,1.9,0.5c0.8,0,1.5,0.1,2.3,0.1c0.9,0,1.9-0.1,2.8-0.2s1.7-0.6,2.4-1.3c0.7-0.7,1.3-1.8,1.7-3.2
			c0.4-1.4,0.7-3.4,0.7-6v-32.4h7.6v32.9C317.9,481.1,316.7,485.4,314.2,488.3z"/>
		<path d="M349.3,442.5h7.5v28.8c0,3.3-0.4,6.3-1.2,9c-0.8,2.6-1.9,4.9-3.4,6.7c-1.5,1.8-3.3,3.2-5.5,4.2c-2.2,1-4.7,1.5-7.5,1.5
			c-3.7,0-6.7-0.7-9-2.2c-2.3-1.5-4-3.3-5.1-5.4c-1.2-2.2-2-4.5-2.3-7c-0.4-2.5-0.6-4.7-0.6-6.7v-28.8h7.5v28.8
			c0,4.8,0.9,8.4,2.6,10.8c1.7,2.4,4,3.6,7,3.6c2.1,0,3.9-0.4,5.2-1.3c1.3-0.8,2.3-1.9,3.1-3.3c0.7-1.4,1.2-2.9,1.5-4.6
			c0.2-1.7,0.4-3.4,0.4-5.2V442.5z"/>
		<path d="M381.4,463.4c1.6-1.5,2.4-3.5,2.4-5.9c0-1.7-0.3-3.2-0.8-4.2c-0.6-1.1-1.3-1.9-2.1-2.5c-0.9-0.6-1.9-1-3-1.2
			c-1.1-0.2-2.2-0.3-3.3-0.3h-4.9v43.5H362v-48.9h0.5c1.4-0.3,3.1-0.5,5.1-0.7c2-0.2,4.1-0.3,6.3-0.3c3.3,0,6,0.3,8.2,0.9
			c2.2,0.6,4,1.6,5.4,2.9c1.3,1.3,2.3,2.8,2.9,4.5c0.6,1.6,0.9,3.4,0.9,5.3c0,3-0.7,5.5-2,7.7c-1.3,2.1-3.2,3.7-5.6,4.9
			c1.3,0.8,2.5,2,3.6,3.6c1,1.6,1.8,3.7,2.4,6.1c0.5,3.2,1.1,6,1.6,8.3c0.6,2.3,1.1,3.9,1.6,4.7l0.5,1.1h-7.6l-0.5-0.5
			c-0.3-0.5-0.6-1.7-1.1-3.4c-0.5-1.8-1-4.4-1.5-8c-0.4-1.6-0.9-3-1.4-4.1c-0.5-1.1-1.1-2-1.8-2.7c-0.7-0.7-1.5-1.1-2.4-1.4
			c-0.9-0.3-2-0.4-3.2-0.4h-2.7v-6.5h3.3C377.5,465.6,379.8,464.9,381.4,463.4z"/>
		<path d="M405.3,470.1v13.8h-7.6v-41.4h26.4v6.6h-18.8v13.8H423v7.2H405.3z M425.3,486.1v6.6h-27.5v-6.6h7.6H425.3z"/>
		<path d="M456.8,492.7h-27.1v-50.2h7.6v43.1h19.5V492.7z"/>
	</g>
	<g>
		<g>
			<path d="M456.8,446.3c-5.7,0-10.3-4.6-10.3-10.3s4.6-10.3,10.3-10.3s10.3,4.6,10.3,10.3S462.5,446.3,456.8,446.3z M456.8,426.3
				c-5.4,0-9.7,4.4-9.7,9.7c0,5.4,4.4,9.7,9.7,9.7c5.4,0,9.7-4.4,9.7-9.7C466.5,430.6,462.1,426.3,456.8,426.3z"/>
		</g>
		<g>
			<path d="M452.9,435.6c0.8,0.3,1.4,0.7,1.7,1.2c0.4,0.5,0.5,1,0.5,1.6c0,0.3-0.1,0.7-0.2,1c-0.1,0.3-0.3,0.6-0.5,0.9
				c-0.3,0.3-0.6,0.5-1,0.6c-0.4,0.2-0.9,0.2-1.5,0.2c-0.4,0-0.8,0-1.2-0.1c-0.4-0.1-0.8-0.2-1-0.4l-0.1-0.1l0.4-1.3l0.1,0.1
				c0.3,0.2,0.6,0.4,1,0.5s0.7,0.2,1,0.2c0.5,0,0.9-0.1,1.2-0.4c0.3-0.2,0.4-0.6,0.4-1.1c0-0.4-0.1-0.7-0.3-0.9
				c-0.2-0.2-0.6-0.5-1.2-0.7c-0.8-0.3-1.4-0.7-1.8-1.1c-0.4-0.4-0.6-1-0.6-1.6c0-0.4,0.1-0.7,0.2-1.1c0.1-0.3,0.4-0.6,0.6-0.8
				c0.3-0.2,0.6-0.4,0.9-0.6c0.4-0.1,0.8-0.2,1.2-0.2c0.5,0,0.9,0.1,1.2,0.2c0.3,0.1,0.6,0.2,0.7,0.3h0.1l-0.4,1.2h-0.2
				c-0.2-0.1-0.4-0.2-0.6-0.3c-0.3-0.1-0.6-0.1-0.9-0.1c-0.2,0-0.4,0-0.5,0.1c-0.2,0-0.3,0.1-0.5,0.2c-0.1,0.1-0.2,0.2-0.3,0.4
				c-0.1,0.1-0.1,0.3-0.1,0.5c0,0.2,0,0.3,0.1,0.5c0.1,0.1,0.1,0.3,0.3,0.4c0.1,0.1,0.3,0.3,0.5,0.4
				C452.4,435.3,452.6,435.4,452.9,435.6z"/>
			<path d="M458.6,436.3c-0.3-0.5-0.5-0.9-0.8-1.3c-0.2-0.4-0.4-0.8-0.6-1.2c0.1,0.5,0.1,1,0.1,1.5c0,0.5,0,1.1,0,1.7v4.2H456v-9.7
				h1.5l2.8,4.8c0.3,0.4,0.5,0.8,0.7,1.2c0.2,0.4,0.4,0.8,0.6,1.1l1.3,2.5h-1.4L458.6,436.3z M461.5,437.5v-2v-4.1h1.4v8.8
				L461.5,437.5z"/>
		</g>
	</g>
	<g>
		<g>
			<path d="M357.4,352.4c-2.6,1.9-5.2,3.9-7.9,5.7c-6.4,4.3-13,8.1-20.2,10.9c-0.5,0.2-0.9,0.7-1.5,0.6c-0.2-0.9,0.5-0.9,1-1.2
				c8-5.2,15.3-11.4,21.3-18.9c10-12.6,15.4-26.9,13.8-43.1c-1.9-19.5-11.5-34.3-29.1-43.6c-2.7-1.4-2.1-1.5-3.8,1
				c-8.2,12.5-18,23.5-30.6,31.7c-10.9,7.1-22.9,11.3-36.1,11.3c-3.8,0-7.1-1.9-10.4-3.5c-9.9-5-17.3-12.8-23.4-21.8
				c-2.6-3.8-5-7.6-7-11.7c-0.1-0.2-0.3-0.3-0.5-0.4c-1.6-3.6-3.2-7.1-4.9-10.7c-1.1-2.2-1.7-4.7-3-6.8c-0.1-0.3-0.1-0.8-0.4-1
				c0.3-1.2-0.6-1-1.2-1c-7.3-0.1-14.2-2-20.5-5.6c-1.5-0.9-2.8-2.2-4.5-2.8l0.1,0.1l0.1-0.1c-0.1-0.7-0.6-0.8-1.2-0.9
				c-2.6-2.3-4.7-4.9-6.5-7.8c-3.9-6.5-6.1-13.6-6.6-21.2c-0.9-11.9,2.5-22.9,8.6-33c3.6-6,8.1-11.2,13.1-16
				c5.5-5.3,11.7-9.6,18.2-13.5c4.3-2.6,8.8-4.8,13.5-6.6c3-1.1,6-2.5,9-3.6c13.7-4.8,27.6-9.2,40.9-15.2
				c9.4-4.3,18.4-9.3,25.7-16.8c6.2-6.4,11.1-13.6,13.1-22.4c1.3-5.7,0.1-10.8-3.7-15.3c-2.8-3.3-6.4-5.3-10.2-7
				c-6.2-2.7-12.7-4-19.4-4.2c-6.5-0.2-13,0.8-19.4,2c-13.4,2.6-25.9,7.6-37.4,14.9c-10.4,6.6-19.7,14.6-27.8,23.9
				c-6.6,7.6-12.4,15.6-17.4,24.3c-6.1,10.6-10.8,21.7-14.2,33.4c-2.9,9.9-4.6,20.1-5.3,30.4c-0.5,8.3-0.1,16.6,1.1,24.8
				c1.5,10.9,5.5,20.6,12.3,29.2c2.3,2.9,4.9,5.6,7.5,8.3c2.1,2.5,4.6,4.5,7,6.6c4.8,4.3,9.8,8.6,13.5,14c5.6,8.2,4.3,21-4.1,26.8
				c-6.3,4.4-13.2,5.9-20.5,2.4c-3.8-1.8-5.8-5.5-5.5-9.9c2,5.5,6.6,6.5,11.4,6.9c1.8,0.2,3.7-0.1,5.6-0.5c4.9-1.1,7.4-4.3,8.3-9.1
				c1.2-6.2-0.8-11.5-5-16c-4.2-4.5-9.1-8.3-13.8-12.3c-7.7-6.5-14.7-13.7-20.1-22.3c-3.1-5-5.6-10.4-7.6-16
				c-5.3-15.1-6-30.7-4.6-46.5c0.9-10,3.1-19.7,6-29.3c4.8-15.9,11.8-30.7,20.8-44.6c6.4-10,13.9-19.2,22.3-27.6
				c8.1-8,16.9-15.1,26.8-20.8c11.7-6.7,24.1-11.2,37.7-12.5c8.2-0.7,16.3-0.5,24.3,1.7c8.9,2.4,16.6,6.9,23.1,13.6
				c3,3,5.8,6.1,8,9.7c4.3,7.1,5.6,14.9,4.8,23c-0.4,3.9-1.4,7.6-2.7,11.3c-0.2,0.5-0.4,1.1-0.4,1.6c0.2,9-2,17.5-5.5,25.7
				c-4.1,9.6-9.7,18.2-17.9,24.9c-4.3,3.5-9.1,6.2-14.7,6.9c-8.6,1.1-15.4-2.6-21.2-8.6c-0.9-0.9-1.6-1.1-2.6-0.4
				c-0.3,0.2-0.5,0.5-0.6,0.9c-0.8,5.4,0.4,10.3,3.1,14.9c3.3,5.7,8,10.2,12.8,14.6c5.5,5,11.2,9.7,16.8,14.6
				c2.4,1.9,4.4,4.1,6.4,6.4c4,4.4,7.2,9.2,8.3,15.2c0.9,4.9-0.5,9.4-2.5,13.8c-1.4,1.5-2.2,3.4-3.4,5c-0.6,0.3-0.9,0.8-1.3,1.3
				c-1.9,2.2-3.8,4.3-6.1,6.1c-0.1-0.1-0.1-0.1-0.2-0.2c0-0.6,0.4-0.9,0.6-1.4c3.3-7.1,3.8-14.3,1.3-21.8c-2.4-7-6.5-13-11.1-18.7
				c-4.1-4.9-8.1-9.9-12.2-14.8c-3.8-4.6-7.4-9.4-10.2-14.7c-3.4-6.6-5-13.4-2.4-21.1c-3.1,1.2-5.9,2.3-8.7,3.3
				c-8.3,3-16.4,6.4-24.1,10.8c-1.4,0.8-2.6,1.7-3.4,3.2c-2.8,5.3-5.7,10.5-7.6,16.2c-2.6,7.9-3.1,16-1.6,24.2
				c0.4,2.4,0.8,4.8,1.5,7.2c0.1,0.2-0.1,0.7,0.4,0.4c-0.1,0.6,0,1.2,0.1,1.9c1.7,6.2,3.5,12.4,5.6,18.5c1.3,3.8,1.3,3.7,5.3,2.8
				c11.2-2.5,16.3-13.7,15.1-21.1c-1.1-7.2-6.3-12-13-11.5c-4.1,0.3-7.4,2.5-10.1,5.5c-1.1,1.2-2,2.7-3,4c0.4-4.7,3.2-7.9,6.7-10.7
				c6.5-5,15.3-5.1,21.4,0c5.9,4.9,8.6,11.3,7.8,18.9c-0.8,8.1-4.2,15-10.6,20.2c-3.8,3.1-8.1,5.1-12.7,6.4
				c-1.4,0.4-1.2,0.9-0.8,1.9c4.9,11.7,10.4,23.1,18.6,32.9c5.3,6.3,11.4,11.7,19.7,13.8c6.5,1.7,12.9,1.1,19.2-0.9
				c6.5-2,12.3-5.4,17.7-9.5c15-11.4,26.1-26.1,35.5-42.2c5-8.6,9.3-17.5,12.5-26.9c2.5-7.2,4.5-14.6,4-22.4c-0.1-1-0.2-1.9-0.4-3.4
				c1.6,2.6,2,5.1,2.1,7.7c0.6,9.6-1.5,18.8-4.3,27.9c-2.6,8.5-6.1,16.6-10.3,24.6c2.4,0.6,4.7,1,6.9,1.8c8.7,3,16.1,8,22.1,15
				c10.7,12.5,15.4,27.1,13.6,43.4c-1.2,10.8-5.6,20.3-12.3,28.9C365.1,345,361.2,348.6,357.4,352.4z M207.9,172.8
				c-2.2,1.1-3.9,2.7-5.5,4.3c-7.5,7.5-13.6,15.8-15.7,26.5c-2.4,12.4,3.5,26.3,16.5,31.4c2.1,0.8,4.3,1.5,6.8,1.8
				c-2.4-8.3-4.8-16.4-6.5-24.6c-2.4-11.6-2.6-23,2-34.1C206.3,176.2,207.1,174.5,207.9,172.8z M307.2,117.3
				c-13.5,14.6-31.1,22.1-48.9,29.5c1.2,1.2,2.5,2.1,3.8,2.9c4.7,2.8,9.6,4,15,2.6c4.6-1.2,8.4-3.8,11.8-7
				c7.4-6.9,12.4-15.5,17-24.5C306.4,119.8,307.3,118.8,307.2,117.3z"/>
			<path d="M288.9,187.5c6.6-10,22.5-7.3,26.8,6.3c0.6-3,1.4-5.6,2.7-8.1c3.2-5.8,9.4-9.1,16.1-8.6c8.4,0.7,14,7.2,14.3,15.3
				c0.2,5.7-1.6,11-3.8,16.2c-2.9,6.8-7.8,12-13.2,16.8c-9,8.1-19,14.9-28.8,22c-8.5,6.2-17.1,12.4-24.3,20.2
				c-2.9,3.2-5.5,6.6-7.1,10.6c-0.7,1.8-1.1,3.7-1.1,6.2c-1.4-2.1-2.2-4-3.1-5.9c-6.3-13.1-9.7-27.1-11.9-41.4
				c-1.5-9.8-2.3-19.6-3.5-29.4c-0.7-6.1-1.9-12-5.2-17.4c-4.1-6.7-10.1-11.1-17.2-14c-0.5-0.2-1-0.5-1.6-0.7
				c-0.5-0.2-1-0.3-1.5-0.6c6.7-0.2,12.5,1.9,17.7,6c5.5,4.4,8.8,10.4,11.4,16.8c2,5,3.4,10.2,4.7,15.5c1.4,7.1,2.6,14.2,3.4,21.4
				c0.5,5.1,1.3,10.2,2.1,15.2c0.9,5.8,1.7,11.5,3.3,17.4c0.2-0.5,0.3-0.6,0.4-0.8c1.7-6.7,5.4-12,10.7-16.2c3.5-2.8,7.4-4.9,11.3-7
				c2-1,4.2-1.7,6.1-2.9c8.9-3.8,18.1-7.1,26.8-11.6c8.6-4.5,14.7-10.9,17.7-20.2c0.3-1.1,0.6-2.3,0.8-3.4c1-5.7,0.4-11-4-15.3
				c-4.5-4.6-10.4-3.8-14.4-0.2c0,1.1-1.2,0.6-1.6,1.2c-1.2,1.8-2.7,3.4-3.8,5.3c-1.9,3.3-3.1,6.9-3.6,10.7
				c-0.2-0.1-0.4-0.1-0.4-0.2c-0.2-0.4-0.3-0.7-0.4-1.1c-1.7-6.3-4.9-11.6-10.1-15.7c-3.2-2.5-6.7-4.3-11-3.9
				C291.9,186.1,290.5,187.2,288.9,187.5z"/>
			<path d="M291.5,243.3c0.3-1.8,1.7-3,2.5-4.5c1-1.9,2.5-3.5,2.9-5.6c1.2-1.6,2-3.5,3.4-5c-0.3,2.6-1.6,5-2.2,7.5
				c-0.4,1.6-0.9,3.1-0.6,4.7C295.7,241.6,293.6,242.3,291.5,243.3z"/>
			<path d="M214.6,250.7c-4.2-0.1-8.4-0.6-12.5-1.8c-4.6-1.4-8.9-3.4-12.8-6.4c-0.4-0.3-0.7-0.7-1-1.1c1.7,0.6,3,1.9,4.5,2.8
				c6.4,3.6,13.2,5.5,20.5,5.6C214,249.8,214.9,249.5,214.6,250.7z"/>
			<path d="M188.4,241.4c-0.6,0-0.9-0.4-1.2-0.9C187.8,240.5,188.3,240.7,188.4,241.4z"/>
			<path d="M312.9,83.1c-1,8.3-5.4,14.6-11.4,19.9c-7.7,6.8-16.8,11.3-26.1,15.5c-12.7,5.6-25.8,10-38.8,14.8
				c-9.9,3.6-19.7,7.3-29.1,11.9c-8.1,3.9-16,8.4-22.5,14.8c-5.2,5.1-9,10.9-10.3,18.6c-0.3-7.7,2.4-13.9,6.8-19.3
				c5.5-6.8,12.7-11.6,20.3-15.8c8.8-5,18.1-8.9,27.5-12.8c4.7-1.9,9.5-3.7,14.2-5.5c14.7-5.7,29.6-11,43.7-18.4
				c7.1-3.7,13.9-7.9,19.5-13.8C309.3,90.2,311.6,86.9,312.9,83.1z"/>
			<path d="M342.1,208.6c0.5-4.1,0.3-8.2-1.1-12.1c-2.2-6.4-8.2-9.4-14.7-7.2c-0.6,0.2-1.2,0.3-1.8,0.4c4-3.7,9.9-4.4,14.4,0.2
				c4.3,4.4,4.9,9.6,4,15.3C342.7,206.3,342.3,207.4,342.1,208.6z"/>
			<path d="M289.6,240.6c-0.1,0-0.4,0.2-0.4,0.1c-0.1-0.2,0-0.3,0.2-0.3C289.5,240.5,289.6,240.5,289.6,240.6z"/>
		</g>
		<path class="st2" d="M358.5,352.4c0.1,0.5-0.1,1-0.3,1.5c-4.6,7.2-9.5,14-15,20.5c-5.5,6.5-11.3,12.6-17.6,18.4
			c-9.8,9-20.4,16.8-32.1,23.2c-7.6,4.1-15.4,7.4-23.8,9.2c-9.1,2-18.2,2.2-27.1-1.4c-6.2-2.6-11-6.9-14.9-12.4
			c-5.7-8.2-9.5-17.4-12.4-26.9c-2.1-7-3.5-14.1-4.5-21.3c-1.6-11.4-1.6-22.8-1.2-34.2c0.3-8.3,1.2-16.7,2.8-24.9
			c1-5.2,1.9-10.4,3.3-15.5c1.7-6,3.5-12,6.6-17.5c0.4-0.7,0.8-1.4,1.6-1.7c0.2,0.1,0.4,0.2,0.5,0.4c2,4.1,4.4,8,7,11.7
			c6.2,9,13.6,16.7,23.4,21.8c3.3,1.7,6.7,3.5,10.4,3.5c13.2,0,25.1-4.2,36.1-11.3c12.6-8.2,22.4-19.2,30.6-31.7
			c1.7-2.5,1.1-2.4,3.8-1c17.5,9.3,27.1,24.1,29.1,43.6c1.6,16.2-3.8,30.4-13.8,43.1c-6,7.6-13.2,13.7-21.3,18.9
			c-0.4,0.3-1.1,0.4-1,1.2c0.6,0.1,1-0.4,1.5-0.6c7.2-2.8,13.9-6.5,20.2-10.9C353.3,356.2,355.9,354.3,358.5,352.4z"/>
		<path class="st2" d="M183.6,249c-2.6-2.6-5.2-5.3-7.5-8.3c-6.9-8.6-10.8-18.4-12.3-29.2c-1.1-8.2-1.6-16.5-1.1-24.8
			c0.7-10.3,2.4-20.5,5.3-30.4c3.4-11.7,8.1-22.9,14.2-33.4c5-8.7,10.8-16.7,17.4-24.3c8.1-9.3,17.4-17.4,27.8-23.9
			c11.5-7.3,24-12.3,37.4-14.9c6.4-1.2,12.8-2.2,19.4-2c6.7,0.2,13.2,1.5,19.4,4.2c3.9,1.7,7.4,3.7,10.2,7c3.8,4.5,5,9.6,3.7,15.3
			c-2,8.8-6.9,16.1-13.1,22.4c-7.3,7.5-16.3,12.5-25.7,16.8c-13.3,6-27.2,10.4-40.9,15.2c-3,1.1-6,2.5-9,3.6
			c-4.8,1.8-9.2,4.1-13.5,6.6c-6.5,3.9-12.7,8.2-18.2,13.5c-5,4.8-9.5,10-13.1,16c-6.1,10.2-9.4,21.1-8.6,33
			c0.5,7.5,2.7,14.7,6.6,21.2c1.7,2.9,3.9,5.5,6.5,7.8c0.3,0.5,0.6,0.9,1.2,0.9l-0.1,0.1c0,0-0.1-0.1-0.1-0.1c0.3,0.4,0.7,0.8,1,1.1
			c3.8,3,8.1,5.1,12.8,6.4c4.1,1.2,8.3,1.7,12.5,1.8c0.4,0.3,0.3,0.7,0.4,1c-5.5,1.2-11.1,1.4-16.6,1c-5-0.3-9.8-1.3-14.4-3.5
			C184.6,249.1,184.1,249.1,183.6,249z M314,83.1c-1.4,3.8-3.7,7-6.4,10c-5.6,5.9-12.4,10.1-19.5,13.8c-14,7.4-29,12.6-43.7,18.4
			c-4.7,1.8-9.5,3.6-14.2,5.5c-9.3,3.8-18.7,7.8-27.5,12.8c-7.5,4.3-14.7,9-20.3,15.8c-4.5,5.5-7.2,11.6-6.8,19.3
			c1.3-7.7,5.1-13.6,10.3-18.6c6.5-6.4,14.4-10.9,22.5-14.8c9.5-4.6,19.3-8.2,29.1-11.9c13-4.8,26.2-9.2,38.8-14.8
			c9.3-4.1,18.4-8.7,26.1-15.5C308.6,97.7,313,91.4,314,83.1z"/>
		<path class="st2" d="M289.9,187.5c1.7-0.3,3.1-1.3,4.8-1.5c4.3-0.4,7.8,1.3,11,3.9c5.1,4.1,8.3,9.4,10.1,15.7
			c0.1,0.4,0.2,0.8,0.4,1.1c0,0.1,0.2,0.1,0.4,0.2c0.5-3.8,1.7-7.4,3.6-10.7c1.1-1.9,2.6-3.5,3.8-5.3c0.4-0.6,1.6-0.1,1.6-1.2
			c0.6,0,1.2-0.1,1.8-0.4c6.4-2.2,12.4,0.8,14.7,7.2c1.4,4,1.6,8,1.1,12.1c-3,9.3-9.1,15.8-17.7,20.2c-8.7,4.5-17.8,7.8-26.8,11.6
			c-0.3-1.6,0.2-3.2,0.6-4.7c0.6-2.5,1.9-4.9,2.2-7.5c2-4.4,3.4-8.9,2.5-13.8c-1.1-6-4.4-10.8-8.3-15.2c-2-2.3-4-4.5-6.4-6.4
			c0.3-1.5,0.6-3.1,1-4.6C290.3,187.7,289.9,187.8,289.9,187.5z"/>
		<path class="st2" d="M292.6,243.3c-3.9,2-7.8,4.2-11.3,7c-5.3,4.3-9.1,9.5-10.7,16.2c0,0.2-0.2,0.4-0.4,0.8
			c-1.6-5.9-2.4-11.7-3.3-17.4c-0.8-5.1-1.5-10.1-2.1-15.2c-0.8-7.2-2-14.3-3.4-21.4c1.1-1.6,1.8-3.4,2.9-4.9
			c3.9-5.5,9.1-8.8,15.9-9.4c0.4,0,0.8,0,1.1-0.4c4.6,5.7,8.7,11.7,11.1,18.7c2.6,7.4,2.1,14.7-1.3,21.8c-0.2,0.5-0.6,0.8-0.6,1.4
			c-0.2,0-0.3,0.1-0.2,0.3c0,0,0.2-0.1,0.4-0.1c2.3-1.8,4.2-3.9,6.1-6.1c0.4-0.5,0.7-1,1.3-1.3c-0.4,2.2-1.9,3.8-2.9,5.6
			C294.3,240.3,292.9,241.5,292.6,243.3z"/>
	</g>
</g>
</svg>
